{"glyphs":{":":{"x_min":0,"x_max":238,"ha":238,"o":"m 40 36 q 40 67 55 85 q 63 95 67 104 q 72 117 85 126 q 97 136 102 136 q 105 136 116 131 q 127 126 128 126 l 137 126 q 145 126 166 99 q 188 71 188 57 q 188 42 181 25 q 174 8 168 8 q 167 8 166 8 q 164 9 163 9 q 163 9 163 8 q 160 -4 127 -14 q 118 -17 110 -20 q 102 -24 100 -24 q 87 -24 63 -5 q 40 13 40 36 z m 40 348 q 40 379 55 397 q 63 407 67 416 q 72 429 85 438 q 97 448 102 448 q 105 448 116 443 q 127 438 128 438 l 137 438 q 145 438 166 411 q 188 383 188 369 q 188 354 181 337 q 174 320 168 320 q 167 320 166 320 q 164 321 163 321 q 163 321 162 319 q 159 307 127 298 q 119 295 110 292 q 101 288 98 288 q 86 288 63 307 q 40 326 40 348 z"},"$":{"x_min":0,"x_max":417,"ha":417,"o":"m 163 -91 q 163 -68 166 -37 q 168 -6 168 1 q 168 3 148 8 q 128 14 105 29 q 63 56 37 84 q 11 112 11 130 q 11 135 12 143 q 13 150 13 153 q 13 154 12 158 q 11 163 11 166 q 11 173 17 177 q 23 181 33 181 q 55 181 87 151 q 95 143 100 139 q 137 107 159 96 q 182 84 204 84 q 223 84 233 95 q 243 106 243 127 q 243 154 221 187 q 199 220 159 252 q 92 305 74 340 q 55 374 55 420 q 55 465 78 505 q 101 545 141 569 q 158 579 176 588 q 193 598 193 599 q 193 600 192 604 q 191 608 191 612 q 191 619 192 628 q 194 637 194 639 q 194 671 196 679 q 198 688 204 690 q 210 693 219 698 q 228 704 232 704 q 250 704 266 696 q 282 688 282 679 q 282 676 280 673 q 278 669 278 668 l 278 660 q 278 655 276 638 q 275 621 275 609 q 275 606 274 600 q 274 595 274 593 q 274 582 285 572 q 297 562 327 545 q 344 535 358 510 q 371 485 371 471 q 371 470 371 466 q 370 462 370 460 q 370 457 373 448 q 376 439 376 433 q 376 397 366 381 q 357 364 336 364 q 308 364 288 376 q 268 388 258 411 q 248 435 243 470 q 238 505 229 505 q 211 505 190 479 q 170 454 170 419 q 170 380 228 335 q 249 320 260 310 q 332 250 353 217 q 375 184 375 147 q 375 110 354 79 q 333 48 289 18 q 279 11 269 7 q 259 2 259 -1 q 259 -1 259 -6 q 260 -11 260 -15 q 260 -73 253 -97 q 247 -121 231 -121 q 227 -121 218 -117 q 208 -114 204 -114 q 202 -114 198 -115 q 195 -115 194 -115 q 180 -115 172 -108 q 163 -101 163 -91 z"},"?":{"x_min":0,"x_max":389,"ha":389,"o":"m 89 228 q 89 242 124 304 q 158 367 208 436 q 245 487 258 517 q 271 547 271 575 q 271 585 266 589 q 261 593 247 593 q 227 593 195 574 q 163 555 122 518 q 102 500 86 478 q 71 455 63 455 q 53 455 33 493 q 13 531 13 546 q 13 558 36 584 q 59 611 94 636 q 139 668 172 684 q 205 700 225 700 q 232 700 274 682 q 316 663 330 650 q 356 625 368 601 q 380 577 380 546 q 380 511 366 476 q 352 441 319 395 q 301 370 269 328 q 198 236 198 201 q 198 196 206 187 q 214 178 214 172 q 214 167 209 164 q 205 160 198 160 q 194 160 177 163 q 161 166 149 166 q 133 166 121 183 q 116 189 113 192 q 112 193 106 197 q 89 208 89 228 z m 74 31 q 74 69 87 82 q 89 84 91 86 q 97 93 107 109 q 123 135 134 135 q 139 135 149 130 q 160 126 173 126 q 190 126 205 106 q 220 85 220 68 q 220 29 199 3 q 177 -22 154 -22 q 146 -22 139 -24 q 132 -26 131 -26 q 119 -26 96 -7 q 74 11 74 31 z"},"<":{"x_min":0,"x_max":833,"ha":833,"o":"m 704 574 l 704 484 l 248 298 l 704 112 l 704 23 l 129 259 l 129 337 z"},"'":{"x_min":0,"x_max":163,"ha":163,"o":"m 42 701 l 122 701 l 122 429 l 42 429 z"},"=":{"x_min":0,"x_max":833,"ha":833,"o":"m 124 238 l 709 238 l 709 157 l 124 157 z m 124 440 l 709 440 l 709 358 l 124 358 z"},"a":{"x_min":0,"x_max":324,"ha":324,"o":"m 179 146 q 157 146 128 127 q 99 107 99 95 q 99 85 105 81 q 110 77 123 77 q 160 77 176 83 q 192 89 192 108 q 192 109 191 112 q 191 114 191 117 q 191 117 191 120 q 192 122 192 124 q 192 136 189 141 q 186 146 179 146 z m 199 10 q 174 0 156 -4 q 137 -9 124 -9 q 87 -9 57 27 q 27 63 27 93 q 27 121 34 141 q 42 161 58 175 q 82 196 114 212 q 147 228 161 228 q 167 228 174 228 q 180 227 181 227 q 188 227 190 231 q 193 235 193 246 q 193 255 192 271 q 191 287 191 294 q 191 299 192 311 q 193 323 193 329 q 193 339 190 346 q 187 352 183 352 q 175 352 153 318 q 138 296 128 282 q 121 272 113 258 q 101 237 90 237 q 77 237 55 248 q 33 260 33 273 q 33 283 52 325 q 70 367 86 387 l 92 395 q 134 448 155 448 q 161 448 184 435 q 206 422 230 413 q 261 401 274 373 q 287 344 287 274 q 287 254 286 215 q 284 175 284 156 q 284 147 285 129 q 285 111 285 101 q 285 92 285 69 q 284 46 284 32 q 284 18 285 4 q 285 1 285 0 q 285 -11 278 -17 q 270 -23 256 -23 q 235 -23 222 -16 q 209 -8 199 10 z"},"L":{"x_min":0,"x_max":354,"ha":354,"o":"m 120 -23 q 117 -23 108 -15 q 99 -6 86 2 q 70 12 65 26 q 59 41 59 80 l 59 120 q 59 376 68 617 q 69 652 69 658 q 69 669 67 681 q 67 684 67 684 q 67 688 82 691 q 97 695 114 695 q 135 695 152 682 q 168 669 171 649 q 172 643 174 562 q 176 481 176 378 q 176 362 175 297 q 175 233 175 185 q 175 178 174 160 q 173 143 173 132 q 173 125 176 124 q 178 122 188 122 q 194 122 220 124 q 247 125 267 125 q 301 125 315 120 q 329 115 339 103 q 348 93 355 73 q 362 54 362 43 q 362 21 320 18 q 309 17 303 16 q 210 2 134 -20 q 122 -23 120 -23 z"},"3":{"x_min":0,"x_max":417,"ha":417,"o":"m 117 -34 q 100 -34 82 -25 q 64 -17 60 -6 q 60 -4 59 3 q 58 11 55 15 q 51 20 42 29 q 32 38 32 43 q 32 54 36 60 q 40 65 47 67 q 63 71 69 76 q 71 77 71 77 q 74 77 82 74 q 90 72 96 72 q 116 72 150 86 q 184 101 213 124 q 234 141 251 164 q 268 187 268 194 q 268 209 243 222 q 218 235 184 235 q 121 235 98 216 q 96 214 95 214 q 90 214 73 227 q 55 241 55 248 q 55 251 59 258 q 62 264 62 267 q 62 267 61 269 q 55 278 55 298 q 55 315 56 321 q 57 326 60 328 q 62 330 71 332 q 103 341 129 359 q 189 401 230 445 q 272 488 272 502 q 272 505 260 508 q 249 510 231 510 q 164 510 103 476 q 94 471 92 471 q 88 471 81 481 q 75 490 72 503 q 71 510 61 527 q 52 544 52 562 q 52 572 56 576 q 59 581 69 584 q 78 587 95 593 q 180 621 213 621 q 245 621 269 612 q 292 603 309 584 q 315 577 326 564 q 365 521 365 486 q 365 464 354 439 q 342 414 317 380 q 301 359 280 342 q 259 325 259 321 q 259 317 284 304 q 309 292 323 278 q 345 257 360 230 q 375 202 375 181 q 375 129 348 88 q 321 46 267 15 q 231 -6 186 -20 q 141 -34 117 -34 z"},";":{"x_min":0,"x_max":238,"ha":238,"o":"m 40 348 q 40 379 55 397 q 63 407 67 416 q 72 429 85 438 q 97 448 102 448 q 105 448 116 443 q 127 438 128 438 l 137 438 q 144 438 166 411 q 187 383 187 369 q 187 354 181 337 q 174 320 168 320 q 167 320 166 320 q 164 321 163 321 q 163 321 162 319 q 159 307 127 298 q 119 295 110 292 q 101 288 98 288 q 86 288 63 307 q 40 326 40 348 z m 26 -124 q 26 -115 34 -89 q 42 -62 45 -47 q 51 -9 64 35 q 78 80 88 100 q 92 108 101 109 q 108 110 112 111 q 115 112 120 118 q 125 125 133 125 q 141 125 164 111 q 187 97 187 87 q 187 83 160 28 q 134 -27 113 -79 q 92 -130 84 -145 q 75 -159 68 -159 q 57 -159 41 -144 q 26 -128 26 -124 z"},"J":{"x_min":0,"x_max":352,"ha":352,"o":"m 142 -28 q 123 -28 102 -21 q 81 -15 58 -1 q 20 22 4 57 q -12 91 -12 148 q -12 165 -3 176 q 6 186 20 186 q 51 186 70 175 q 88 165 99 139 q 109 117 113 86 q 117 55 126 55 q 148 55 158 140 q 169 225 169 403 q 169 440 167 504 q 165 567 165 594 q 165 671 171 691 q 176 712 192 712 q 236 712 257 699 q 279 687 279 660 q 279 659 278 652 q 276 619 276 585 q 276 554 280 481 q 283 408 283 366 l 283 272 q 283 161 274 111 q 265 62 244 29 q 225 -1 201 -15 q 177 -28 142 -28 z"},"V":{"x_min":0,"x_max":465,"ha":465,"o":"m 253 -23 q 241 -23 207 -12 q 173 -1 168 6 q 167 8 154 70 q 150 89 148 100 q 134 172 113 265 q 93 358 69 456 q 53 521 42 584 q 40 595 39 597 q 37 606 32 618 q 27 630 27 632 q 27 642 44 656 q 61 669 73 669 q 120 669 150 564 q 154 552 156 546 q 188 441 203 344 q 219 248 221 248 q 223 248 245 352 q 267 455 300 570 q 305 588 314 619 q 350 746 370 746 q 378 746 387 737 q 392 733 393 732 q 397 729 406 727 q 415 725 417 723 q 423 719 431 706 q 440 693 440 690 q 440 687 401 533 q 362 379 325 221 l 314 175 q 268 -23 253 -23 z"},"\"":{"x_min":0,"x_max":314,"ha":314,"o":"m 193 701 l 273 701 l 273 429 l 193 429 z m 42 701 l 122 701 l 122 429 l 42 429 z"},"7":{"x_min":0,"x_max":375,"ha":375,"o":"m 89 42 q 89 107 149 279 q 162 316 169 336 q 203 436 221 491 q 221 493 217 494 q 213 495 208 495 q 203 495 186 493 q 168 490 157 490 q 140 490 111 493 q 83 496 71 496 q 63 496 54 494 q 44 492 43 492 q 31 492 20 516 q 9 539 9 548 q 9 549 10 552 q 11 555 11 556 q 11 559 9 565 q 6 571 6 575 q 6 589 10 597 q 15 605 22 605 q 25 605 37 602 q 49 598 57 598 q 63 598 73 599 q 83 600 87 600 q 115 600 186 605 q 256 610 295 610 q 303 610 315 596 q 328 583 336 577 q 338 575 344 572 q 367 556 367 545 q 367 541 350 503 q 333 464 321 432 q 303 386 277 307 q 251 228 241 200 q 224 151 199 76 q 165 -25 156 -25 q 152 -25 146 -21 q 139 -17 135 -15 q 131 -14 124 -12 q 116 -11 113 -10 q 102 -6 95 8 q 89 22 89 42 z"},"S":{"x_min":0,"x_max":447,"ha":447,"o":"m 238 -28 q 156 -28 98 24 q 85 36 79 39 q 58 50 37 86 q 15 122 15 142 q 15 146 17 154 q 19 162 19 166 q 19 167 18 171 q 16 175 16 178 q 16 186 22 190 q 28 195 37 195 q 51 195 66 187 q 81 178 96 162 q 100 158 106 151 q 176 77 215 77 q 235 77 247 93 q 260 109 260 135 q 260 172 240 206 q 221 240 163 296 q 104 354 84 392 q 64 431 64 479 q 64 526 82 567 q 101 609 138 647 q 162 671 189 687 q 216 702 233 702 q 240 702 266 693 q 292 684 302 675 q 342 642 363 625 q 377 609 389 571 q 401 533 401 500 q 401 458 390 436 q 380 415 359 415 q 336 415 318 426 q 300 437 283 462 q 269 482 264 532 q 258 581 254 581 q 233 581 207 547 q 180 514 180 481 q 180 437 257 363 q 276 344 287 334 q 341 280 370 228 q 398 176 398 132 q 398 110 384 84 q 371 58 341 25 q 319 -1 292 -14 q 266 -28 238 -28 z"},"}":{"x_min":0,"x_max":500,"ha":500,"o":"m 74 721 l 96 721 q 152 721 184 716 q 215 710 237 697 q 265 681 276 650 q 287 620 287 550 l 287 429 q 287 359 312 330 q 338 302 400 302 q 403 302 410 302 q 417 303 421 303 l 421 216 q 417 216 410 216 q 403 217 400 217 q 338 217 313 188 q 287 159 287 89 l 287 -32 q 287 -102 276 -132 q 265 -162 237 -178 q 216 -191 184 -197 q 152 -202 96 -202 l 74 -202 l 74 -116 q 78 -116 85 -117 q 93 -117 96 -117 q 149 -117 168 -97 q 187 -76 187 -11 l 187 106 q 187 181 209 213 q 231 245 287 259 q 231 272 209 304 q 187 336 187 412 l 187 530 q 187 594 168 615 q 150 635 97 635 q 94 635 86 634 q 78 634 74 634 z"},"Z":{"x_min":0,"x_max":454,"ha":454,"o":"m 95 0 q 81 0 73 -6 q 64 -12 62 -12 q 54 -12 36 25 q 18 62 18 80 q 18 89 64 170 q 110 250 143 311 q 176 373 225 459 q 274 544 274 556 q 274 559 271 560 q 268 561 261 561 q 195 561 135 564 q 126 565 124 565 q 120 565 113 563 q 106 561 104 561 q 95 561 85 589 q 75 617 75 637 q 75 649 78 657 q 80 665 84 666 q 98 669 133 673 q 167 676 203 676 q 271 676 333 672 q 343 671 345 671 q 354 671 365 677 q 375 682 376 682 q 377 682 390 671 q 403 661 406 657 q 412 650 416 637 q 419 625 421 621 q 422 618 427 615 q 431 611 431 609 q 431 606 393 537 q 355 467 297 361 l 281 333 q 171 133 171 124 q 171 121 208 119 q 213 119 216 119 q 254 118 294 113 q 333 109 337 109 q 353 108 365 90 q 378 72 378 55 q 378 28 375 14 q 372 0 366 0 q 363 0 357 0 q 351 1 348 1 q 342 1 326 0 q 310 -2 300 -2 q 283 -2 242 0 q 201 3 177 3 q 162 3 139 1 q 115 0 107 0 z"},"x":{"x_min":0,"x_max":331,"ha":331,"o":"m 99 217 q 99 227 82 263 q 64 300 55 328 q 46 355 37 380 q 28 404 28 406 q 28 419 49 431 q 71 444 89 444 q 109 444 124 406 q 128 396 130 391 q 137 376 146 354 q 161 318 166 318 q 167 318 181 344 q 195 370 212 405 q 226 433 240 450 q 253 468 260 468 q 271 468 297 447 q 323 426 323 420 q 323 411 297 367 q 270 323 255 293 q 250 282 240 264 q 217 218 217 210 l 217 208 q 217 207 219 205 q 221 202 221 201 q 221 192 247 146 q 267 108 280 83 q 292 60 300 38 q 308 16 308 10 q 308 1 302 -5 q 295 -11 286 -11 q 285 -11 280 -10 q 275 -8 272 -8 q 269 -8 264 -10 q 259 -13 257 -13 q 241 -13 225 1 q 208 16 190 48 q 184 59 175 75 q 161 99 156 99 q 154 99 139 67 q 130 50 125 39 q 105 -1 90 -39 q 90 -43 89 -46 q 87 -48 85 -48 q 83 -48 79 -47 q 75 -47 73 -47 q 71 -47 69 -47 q 66 -48 66 -48 q 48 -48 32 -25 q 16 -3 16 19 q 16 27 29 57 q 38 78 43 92 q 58 129 78 170 q 99 211 99 217 z"},")":{"x_min":0,"x_max":336,"ha":336,"o":"m 59 -152 q 59 -146 72 -110 q 84 -75 93 -46 q 119 40 133 137 q 148 235 148 323 q 148 409 130 496 q 113 583 89 625 q 87 629 83 635 q 68 659 68 679 q 68 686 85 691 q 103 697 124 697 q 140 697 149 688 q 159 678 174 644 q 205 569 220 483 q 236 397 236 299 q 236 199 223 98 q 210 -3 187 -90 q 184 -102 179 -122 q 164 -180 145 -180 q 141 -180 130 -177 q 119 -173 111 -173 q 109 -173 102 -174 q 96 -175 92 -175 q 80 -175 69 -168 q 59 -161 59 -152 z"},"&":{"x_min":0,"x_max":525,"ha":525,"o":"m 195 494 q 195 454 208 422 q 220 390 231 390 q 236 390 248 400 q 260 410 281 432 q 308 459 315 477 q 323 494 323 516 q 323 548 304 572 q 285 596 263 596 q 233 596 214 568 q 195 540 195 494 z m 285 139 q 285 142 274 156 q 262 169 237 197 q 233 201 227 208 q 209 229 204 229 q 198 229 187 216 q 176 203 161 178 q 150 160 140 131 q 130 101 130 94 q 130 85 134 81 q 138 77 147 77 q 152 77 177 85 q 203 94 229 106 q 251 116 268 126 q 285 137 285 139 z m 470 -34 q 444 -34 432 -21 q 429 -19 427 -17 q 410 -1 385 26 q 360 53 350 53 q 337 53 301 30 q 264 7 241 0 q 215 -8 189 -12 q 164 -16 144 -16 q 93 -16 54 18 q 16 52 16 100 q 16 132 35 178 q 53 224 83 262 q 96 278 117 296 q 138 313 138 319 q 138 323 127 340 q 82 411 82 475 q 82 558 132 626 q 182 695 240 695 q 271 695 304 676 q 338 656 381 613 q 412 581 420 562 q 428 543 428 516 q 428 478 414 441 q 400 403 375 373 q 360 355 330 333 q 300 310 300 301 q 300 294 337 249 q 345 238 350 232 q 368 208 377 202 q 385 196 394 196 q 400 196 442 209 q 484 223 500 223 q 504 223 514 215 q 525 207 525 201 q 525 194 512 175 q 499 155 480 136 q 475 130 461 123 q 448 115 448 107 q 448 100 480 56 q 512 13 512 -7 q 512 -15 498 -18 q 496 -19 494 -19 q 486 -21 480 -28 q 474 -34 470 -34 z"},"_":{"x_min":0,"x_max":500,"ha":500,"o":"m 0 -152 l 500 -152 l 500 -236 l 0 -236 z"},"v":{"x_min":0,"x_max":315,"ha":315,"o":"m 173 -26 q 163 -26 145 -14 q 140 -11 138 -10 q 134 -7 124 -6 q 114 -4 110 -3 q 89 3 75 53 l 74 57 q 74 58 72 66 q 57 146 40 239 q 29 303 21 362 q 13 422 13 431 q 13 438 17 441 q 21 445 28 445 q 65 445 86 433 q 108 421 111 398 q 117 350 131 277 q 145 204 145 184 q 145 180 144 174 q 143 167 143 166 q 143 162 145 159 q 147 157 150 157 q 155 157 166 213 q 179 279 190 328 q 197 359 207 406 q 225 496 250 496 q 268 496 289 476 q 310 456 310 428 q 310 418 281 313 q 251 208 229 112 q 222 82 214 38 q 204 -26 173 -26 z"},"O":{"x_min":0,"x_max":509,"ha":509,"o":"m 268 606 q 255 606 230 565 q 224 555 220 549 q 186 494 170 434 q 155 374 155 291 q 155 201 179 131 q 203 62 221 62 q 269 62 310 161 q 350 260 350 390 q 350 430 338 485 q 326 540 314 564 q 307 579 291 593 q 276 606 268 606 z m 36 309 q 36 412 65 510 q 93 609 137 662 q 151 679 176 691 q 201 702 223 702 q 238 702 276 686 q 314 670 329 667 q 353 663 370 649 q 387 636 407 607 q 440 558 458 492 q 477 427 477 360 q 477 283 458 204 q 438 126 407 72 q 382 29 349 2 q 317 -26 294 -26 l 288 -26 q 284 -26 276 -27 q 268 -28 263 -28 q 262 -28 256 -26 q 230 -17 203 -11 q 186 -7 169 3 q 153 14 137 31 q 81 91 59 155 q 36 218 36 309 z"},"(":{"x_min":0,"x_max":336,"ha":336,"o":"m 194 -180 q 157 -180 129 -72 q 100 37 100 198 q 100 377 154 608 q 162 642 165 657 q 166 661 167 669 q 172 703 187 703 q 203 703 229 683 q 254 663 254 644 q 254 635 223 484 q 193 332 193 202 q 193 49 250 -115 q 262 -150 262 -157 q 262 -168 245 -174 q 229 -180 194 -180 z"},"C":{"x_min":0,"x_max":435,"ha":435,"o":"m 227 -27 q 190 -27 150 -10 q 110 7 89 32 q 62 62 48 121 q 33 180 33 259 q 33 352 54 449 q 75 546 106 607 q 132 658 160 681 q 188 705 222 705 q 241 705 272 689 q 303 673 341 644 q 361 628 374 595 q 387 561 387 519 q 387 452 374 435 q 360 417 322 417 q 297 417 282 434 q 268 451 262 488 q 261 496 258 512 q 246 591 228 591 q 221 591 214 576 q 207 562 200 534 q 198 526 194 509 q 159 368 159 231 q 159 187 164 147 q 169 107 179 77 q 183 66 189 63 q 196 59 209 59 q 227 59 255 102 q 283 144 291 194 q 292 200 293 211 q 297 241 316 258 q 327 268 333 271 q 339 274 346 274 q 365 274 382 255 q 398 237 398 208 q 398 111 349 42 q 300 -27 227 -27 z"},"W":{"x_min":0,"x_max":655,"ha":655,"o":"m 234 -14 q 210 -14 176 -1 q 143 13 136 14 q 123 16 103 38 q 102 38 102 38 q 96 51 90 82 q 84 113 79 159 q 67 264 64 355 q 64 366 64 368 q 63 378 59 395 q 55 411 55 418 q 55 420 57 432 q 58 443 58 452 q 58 473 51 523 q 43 573 43 602 q 43 628 48 656 q 48 658 48 658 q 48 659 63 665 q 79 671 82 671 q 120 671 135 664 q 151 657 151 633 q 151 625 159 511 q 167 397 172 314 q 173 295 174 263 q 178 177 190 177 q 202 177 204 211 q 205 231 206 243 q 221 374 240 476 q 242 483 242 485 q 245 503 250 534 q 260 596 261 612 q 261 620 267 623 q 273 627 287 627 q 372 627 376 591 q 377 589 377 588 q 378 584 384 528 q 389 472 397 388 q 405 302 407 281 q 409 260 409 257 l 409 244 q 409 236 411 233 q 414 230 418 230 q 426 230 445 323 q 460 401 473 455 q 479 480 488 524 q 535 733 565 733 q 587 733 619 713 q 650 694 650 686 q 650 682 648 678 q 646 675 641 670 q 634 663 623 618 q 617 598 614 586 q 602 541 584 465 q 567 390 546 288 l 539 252 q 486 3 473 3 q 464 3 446 13 q 428 23 421 26 q 415 29 403 33 q 378 41 373 52 q 366 67 353 125 q 344 161 339 182 q 328 228 321 270 q 315 313 315 338 q 315 341 316 348 q 317 354 317 358 q 317 359 315 361 q 313 362 311 362 q 305 362 303 358 q 301 354 301 344 q 301 344 301 342 q 302 337 302 333 q 302 320 288 237 q 275 154 256 67 q 251 46 247 18 q 242 -14 234 -14 z"},"A":{"x_min":0,"x_max":477,"ha":477,"o":"m 182 284 q 182 281 186 280 q 189 278 195 278 q 263 278 277 281 q 291 284 291 298 q 291 300 287 314 q 271 377 260 443 q 257 459 254 483 q 250 519 244 519 q 240 519 232 481 q 227 452 222 432 q 205 361 186 298 q 182 285 182 284 z m 17 -17 q 17 58 114 445 l 115 448 q 126 494 144 568 q 174 703 193 703 q 239 703 289 688 q 338 673 338 665 q 338 664 337 660 q 337 657 337 655 q 337 652 343 622 q 348 592 356 557 q 360 539 363 510 q 367 481 368 473 q 369 469 378 428 q 387 387 391 351 q 391 343 401 280 q 411 217 425 141 q 426 138 428 129 q 438 79 443 33 q 444 18 451 4 q 452 0 452 0 q 452 -4 444 -11 q 437 -17 429 -17 q 426 -17 420 -15 q 414 -13 411 -13 q 406 -13 398 -17 q 390 -21 386 -21 q 355 -21 334 47 l 334 49 q 322 88 314 134 q 306 180 294 180 q 293 180 287 179 q 250 171 204 167 q 178 165 167 162 q 157 159 153 152 q 148 141 145 117 q 141 93 138 83 q 135 73 130 55 q 114 3 114 -24 q 114 -38 104 -48 q 95 -59 79 -59 q 53 -59 34 -51 q 15 -42 15 -32 q 15 -29 16 -24 q 17 -19 17 -17 z"},"f":{"x_min":0,"x_max":271,"ha":271,"o":"m 73 106 q 73 121 72 149 q 70 177 70 190 q 70 207 72 230 q 73 253 73 260 q 73 267 73 278 q 72 290 72 295 q 72 305 69 309 q 67 313 61 313 q 60 313 55 312 q 50 312 47 312 q 42 312 38 313 q 33 314 28 316 q 22 318 21 331 q 21 336 20 339 q 19 351 15 362 q 11 373 11 375 q 11 393 42 394 q 74 396 74 407 q 74 408 74 415 q 73 422 73 427 q 73 539 104 619 q 134 700 169 700 q 174 700 201 693 q 227 686 238 681 q 265 669 278 653 q 292 636 292 614 q 292 605 293 593 q 295 582 295 579 q 295 572 294 560 q 293 547 293 542 q 293 539 293 532 q 294 525 294 522 q 294 500 283 491 q 271 483 237 483 q 225 483 215 501 q 206 519 206 545 q 206 554 207 567 q 207 580 207 584 q 207 595 205 600 q 202 605 197 605 q 185 605 178 558 q 172 512 172 423 q 172 416 175 413 q 177 410 183 410 q 190 410 202 412 q 214 413 219 413 q 239 413 245 410 q 252 407 252 400 q 252 397 250 389 q 249 382 249 377 q 249 372 250 364 q 250 355 250 352 q 250 336 247 331 q 245 325 237 325 q 236 325 228 326 q 220 327 214 327 q 191 327 182 325 q 173 322 173 314 l 173 311 q 173 301 172 288 q 172 275 172 272 q 172 264 173 253 q 174 243 174 240 q 174 231 173 202 q 172 173 172 153 l 172 118 q 172 107 171 87 q 171 67 171 59 q 171 44 172 27 q 173 9 173 6 q 173 -11 168 -18 q 163 -25 152 -25 q 143 -25 117 -20 q 92 -15 86 -12 q 79 -9 76 7 q 73 24 73 72 z"},"Q":{"x_min":0,"x_max":509,"ha":509,"o":"m 328 -17 q 315 -22 308 -24 q 301 -26 294 -26 q 286 -26 276 -27 q 266 -28 263 -28 q 262 -28 256 -26 q 230 -17 203 -11 q 186 -7 169 3 q 153 14 137 31 q 81 90 59 154 q 36 217 36 309 q 36 396 59 487 q 82 578 117 633 q 138 667 165 685 q 192 702 223 702 q 238 702 276 686 q 314 670 329 667 q 353 663 370 649 q 387 636 407 607 q 440 558 458 492 q 477 427 477 360 q 477 279 456 199 q 435 119 398 58 q 445 10 476 -28 q 506 -65 506 -76 q 506 -81 494 -93 q 482 -105 475 -105 q 472 -105 460 -103 q 448 -100 440 -100 l 420 -100 q 411 -100 405 -96 q 399 -93 387 -80 q 381 -74 356 -47 q 338 -28 328 -17 z m 253 75 q 247 86 239 101 q 231 116 231 119 q 231 126 244 133 q 256 140 266 140 q 274 140 281 138 q 289 136 297 131 q 324 201 337 263 q 350 325 350 384 q 350 471 324 538 q 297 606 268 606 q 255 606 232 568 q 224 556 220 549 q 186 494 170 434 q 155 374 155 291 q 155 201 179 131 q 203 62 220 62 q 226 62 249 73 z"},"w":{"x_min":0,"x_max":463,"ha":463,"o":"m 169 -19 q 163 -19 139 -14 q 116 -8 103 -2 q 97 1 85 16 q 73 31 72 36 q 68 53 62 104 q 55 155 51 183 q 39 262 30 333 q 21 403 21 415 q 21 422 27 432 q 33 443 37 443 q 38 443 40 442 q 42 442 43 442 q 47 442 52 444 q 58 446 59 446 q 64 446 85 440 q 106 435 111 431 q 120 424 123 390 l 123 389 q 131 290 137 236 q 143 183 146 183 q 154 183 164 250 q 171 305 178 342 q 184 375 192 398 q 200 420 206 420 q 208 420 212 417 q 216 415 219 415 q 221 415 225 417 q 228 419 230 419 q 231 419 244 413 q 258 408 262 405 q 269 400 270 387 q 270 382 270 379 q 276 304 291 227 q 294 208 294 204 l 294 189 q 294 187 295 186 q 296 185 298 185 q 306 185 309 190 q 312 194 312 208 q 312 211 312 216 q 311 221 311 222 q 311 238 332 323 q 337 344 340 356 q 345 375 349 400 q 354 425 356 431 l 357 433 q 367 458 367 468 q 367 469 367 472 q 366 474 366 475 q 366 486 371 491 q 375 497 384 497 q 408 497 433 481 q 459 466 459 449 q 459 443 433 337 q 407 231 386 131 q 383 115 377 86 q 356 -20 331 -20 q 328 -20 321 -16 q 314 -12 309 -12 q 307 -12 303 -13 q 300 -13 299 -13 q 278 -13 267 3 q 255 19 246 69 q 240 102 233 148 q 226 201 220 201 q 217 201 215 196 q 213 190 213 182 q 213 180 213 177 q 214 173 214 172 q 214 169 211 156 q 197 91 192 20 q 190 3 184 -8 q 178 -19 169 -19 z"},"-":{"x_min":0,"x_max":336,"ha":336,"o":"m 78 182 q 68 182 55 206 q 42 229 42 253 q 42 260 43 263 q 45 267 48 267 q 49 267 51 266 q 53 265 54 265 q 56 265 58 266 q 60 267 60 267 q 62 267 66 267 q 71 266 73 266 q 75 266 81 268 q 87 269 92 269 q 104 269 120 268 q 123 268 124 268 q 129 268 145 269 q 161 269 172 269 q 232 269 251 265 q 270 262 270 252 q 270 244 275 231 q 281 218 281 204 q 281 193 279 189 q 276 185 271 185 q 269 185 265 186 q 262 187 259 187 q 257 187 238 184 q 220 181 204 181 q 195 181 179 183 q 163 185 155 185 q 149 185 136 184 q 122 182 114 182 l 96 182 z"},"E":{"x_min":0,"x_max":426,"ha":426,"o":"m 140 -21 q 136 -21 114 -9 q 91 4 82 14 q 74 23 70 63 q 66 104 66 180 q 66 359 69 475 q 72 591 77 636 q 81 666 88 674 q 94 682 109 682 q 114 682 122 677 q 130 673 136 673 q 139 673 156 677 q 233 694 297 694 q 313 694 333 667 q 352 640 352 609 q 352 590 298 582 q 283 580 273 578 q 251 574 219 573 q 181 572 181 556 q 181 554 182 550 q 182 545 182 543 q 182 528 179 487 q 176 446 176 421 q 176 413 178 411 q 180 409 188 409 q 192 409 207 411 q 259 419 304 419 q 330 419 344 400 q 358 381 358 348 q 358 340 359 332 q 360 323 360 323 q 360 311 306 306 q 290 304 279 303 q 262 301 233 299 q 173 294 173 278 q 173 277 173 273 q 174 257 174 241 q 174 214 173 184 q 173 154 173 152 q 173 149 172 140 q 171 131 171 125 q 171 115 173 109 q 175 104 179 104 q 203 104 251 113 q 299 121 315 121 q 330 121 349 101 q 367 81 367 59 q 367 55 367 47 q 366 38 366 34 q 366 31 370 25 q 373 19 373 16 q 373 13 368 12 q 366 12 364 12 q 333 9 297 1 q 260 -6 256 -7 q 220 -13 183 -17 q 146 -21 140 -21 z"},"s":{"x_min":0,"x_max":324,"ha":324,"o":"m 160 -26 q 123 -26 75 7 q 27 41 27 66 q 27 74 31 82 q 36 90 36 92 q 36 92 35 95 q 34 97 34 99 q 34 104 42 107 q 49 111 62 111 q 77 111 109 87 q 142 64 151 64 q 158 64 166 72 q 175 80 175 88 q 175 99 161 115 q 146 131 107 162 q 74 189 56 223 q 39 256 39 295 q 39 327 55 358 q 71 389 102 417 q 118 431 139 442 q 160 453 165 453 q 188 453 210 442 q 231 432 262 403 q 273 393 278 373 q 282 353 282 315 q 282 282 275 265 q 268 248 254 248 q 250 248 242 250 q 234 251 231 251 q 229 251 223 250 q 218 250 216 250 q 199 250 193 266 q 188 281 188 335 q 188 350 186 356 q 184 363 179 363 q 169 363 153 340 q 137 317 137 294 q 137 277 158 253 q 178 229 220 196 q 252 171 266 146 q 280 121 280 91 q 280 48 240 11 q 199 -26 160 -26 z"},">":{"x_min":0,"x_max":833,"ha":833,"o":"m 129 574 l 704 337 l 704 259 l 129 23 l 129 112 l 585 298 l 129 484 z"},"l":{"x_min":0,"x_max":227,"ha":227,"o":"m 133 -23 q 121 -23 99 -15 q 78 -7 71 1 q 64 8 62 38 q 59 68 59 158 l 59 205 q 59 259 63 394 q 67 530 69 597 q 69 610 70 631 q 71 703 88 703 q 125 703 151 691 q 177 678 177 661 q 177 623 170 541 q 164 460 164 423 l 164 384 q 164 364 163 323 q 161 283 161 262 q 161 240 162 203 q 162 167 162 153 q 162 130 162 101 q 161 72 161 65 q 161 51 162 34 q 162 18 162 16 q 162 -5 155 -14 q 148 -23 133 -23 z"},"8":{"x_min":0,"x_max":440,"ha":440,"o":"m 170 458 q 170 437 185 413 q 199 388 213 388 q 224 388 251 427 q 278 467 278 493 q 278 513 266 530 q 255 546 240 546 q 217 546 193 520 q 170 494 170 458 z m 137 123 q 137 96 156 76 q 175 56 196 56 q 227 56 250 86 q 274 116 274 163 q 274 193 252 220 q 230 248 221 248 q 210 248 174 204 q 137 159 137 123 z m 36 148 q 36 176 46 205 q 57 235 75 259 q 89 278 113 299 q 136 321 136 324 q 136 326 127 335 q 66 399 66 462 q 66 525 111 576 q 155 627 217 627 q 275 627 329 578 q 383 529 383 469 q 383 416 315 338 q 300 322 300 319 q 300 316 313 302 q 327 288 338 274 q 369 234 383 205 q 396 176 396 150 q 396 80 343 28 q 290 -24 216 -24 q 142 -24 89 27 q 36 77 36 148 z"},"\\":{"x_min":0,"x_max":428,"ha":428,"o":"m 346 -84 q 324 -84 281 39 q 239 161 203 247 q 124 435 86 517 q 49 599 27 632 q 19 644 9 658 q -1 672 -1 675 q -1 690 20 705 q 40 719 63 719 q 77 719 89 691 q 94 679 98 672 q 125 625 154 561 q 183 497 211 424 q 218 405 270 281 q 321 157 361 52 q 375 15 390 -19 q 405 -53 405 -54 q 405 -63 394 -76 q 383 -89 368 -89 q 365 -89 360 -86 q 355 -84 352 -84 z"},"e":{"x_min":0,"x_max":343,"ha":343,"o":"m 182 371 q 179 371 174 365 q 170 358 167 350 q 162 334 154 309 q 139 261 139 255 q 139 253 141 252 q 144 251 146 251 q 155 251 181 258 q 207 266 207 270 q 207 316 200 344 q 193 371 182 371 z m 28 161 q 28 230 50 307 q 73 384 100 422 q 110 436 122 442 q 133 448 150 448 q 173 448 209 436 q 245 424 258 411 q 277 393 289 351 q 300 309 300 255 q 300 245 299 229 q 298 212 298 206 q 298 194 263 189 q 232 185 208 181 q 195 179 174 176 q 123 169 123 141 l 123 128 l 123 105 q 123 86 129 77 q 136 67 148 67 q 163 67 186 84 q 209 102 232 130 q 236 136 243 146 q 258 167 266 167 q 282 167 297 154 q 313 142 313 129 q 313 127 311 123 q 308 119 308 116 q 308 115 310 111 q 311 107 311 105 q 311 98 294 69 q 276 40 253 16 q 226 -11 211 -18 q 196 -25 175 -25 q 163 -25 136 -14 q 108 -2 105 1 l 101 5 q 28 64 28 161 z"},"b":{"x_min":0,"x_max":366,"ha":366,"o":"m 219 353 q 211 353 193 316 q 174 279 159 229 q 150 202 147 167 q 143 133 143 83 q 143 67 149 61 q 155 54 169 54 q 193 54 212 123 q 230 192 230 290 q 230 294 229 308 q 229 323 229 334 q 229 343 226 348 q 224 353 219 353 z m 105 2 q 102 2 93 -1 q 84 -5 79 -5 q 60 -5 52 27 q 45 59 45 171 l 45 281 q 45 425 55 594 q 58 644 58 656 q 58 662 58 671 q 57 680 57 684 q 57 694 62 698 q 68 702 81 702 q 122 702 139 692 q 156 683 156 660 q 156 525 145 396 q 143 379 143 376 q 143 374 144 373 q 145 371 146 371 q 146 371 150 378 q 177 432 208 432 q 233 432 261 419 q 289 406 303 387 q 317 369 324 333 q 331 297 331 246 q 331 126 294 52 q 257 -22 201 -22 q 173 -22 144 -10 q 114 2 105 2 z"},"%":{"x_min":0,"x_max":690,"ha":690,"o":"m 530 246 q 513 246 492 208 q 471 169 471 125 q 471 93 481 69 q 490 45 502 45 q 519 45 541 87 q 563 129 563 178 q 563 207 553 226 q 543 246 530 246 z m 384 129 q 384 166 399 205 q 414 244 442 283 q 456 302 473 316 q 491 331 495 331 q 499 331 507 327 q 515 323 519 322 q 522 321 528 320 q 561 315 593 292 q 596 290 601 287 q 613 281 619 268 q 621 265 625 258 q 649 214 649 167 q 649 98 606 36 q 563 -27 520 -27 q 462 -27 423 20 q 384 66 384 129 z m 179 541 q 161 541 141 503 q 120 465 120 420 q 120 387 130 364 q 139 340 151 340 q 167 340 189 382 q 212 424 212 473 q 212 501 202 521 q 192 541 179 541 z m 33 422 q 33 459 48 498 q 62 537 91 576 q 105 595 122 610 q 139 624 143 624 q 147 624 155 620 q 163 616 167 615 q 170 614 176 613 q 208 608 241 585 q 244 583 249 580 q 261 574 267 561 q 269 558 272 551 q 297 507 297 460 q 297 391 254 328 q 211 266 168 266 q 110 266 72 312 q 33 358 33 422 z m 174 -28 q 148 -28 134 -15 q 120 -1 120 20 q 120 40 285 281 q 365 398 414 471 q 456 533 504 594 q 514 606 515 608 q 515 608 516 609 q 525 627 557 627 q 581 627 596 616 q 611 604 611 592 q 611 591 599 578 q 498 466 372 284 q 304 186 241 79 q 178 -28 174 -28 z"},"m":{"x_min":0,"x_max":539,"ha":539,"o":"m 50 36 q 50 54 50 75 q 51 96 51 99 l 51 193 q 51 203 51 223 q 52 243 52 253 q 52 295 49 353 q 47 411 47 426 q 47 439 56 445 q 65 451 85 451 q 108 451 120 446 q 131 441 131 431 q 131 430 131 427 q 129 404 129 381 l 129 376 q 129 374 130 374 q 131 373 133 373 q 134 373 140 382 q 179 437 211 437 q 250 437 287 390 q 292 383 293 383 q 297 383 302 394 q 307 404 310 409 q 324 429 343 438 q 362 446 399 446 q 450 446 469 419 q 489 393 489 319 l 489 274 l 489 233 q 489 216 485 163 q 481 110 474 20 q 472 -2 467 -8 q 462 -14 441 -14 q 419 -14 400 -3 q 382 9 382 26 q 382 31 383 53 q 389 140 389 216 q 389 268 393 311 q 393 316 393 317 q 393 339 389 350 q 386 360 378 360 q 371 360 354 324 q 337 288 329 244 q 324 217 321 164 q 320 153 320 148 q 319 133 315 99 q 312 65 312 50 l 312 25 q 312 14 308 10 q 303 6 290 6 q 279 6 267 11 q 255 16 250 16 q 231 16 226 28 q 220 39 220 84 q 220 110 223 167 q 226 223 226 252 q 226 304 223 323 q 221 343 214 343 q 194 343 171 281 q 148 220 148 138 q 148 124 149 99 q 151 74 151 64 q 151 12 146 -4 q 142 -20 130 -20 q 110 -20 93 -14 q 77 -9 74 0 q 72 6 61 9 q 50 12 50 36 z"},"#":{"x_min":0,"x_max":769,"ha":769,"o":"m 346 416 l 302 292 l 427 292 l 471 416 z m 359 713 l 452 713 l 377 500 l 499 500 l 575 713 l 668 713 l 593 500 l 735 500 l 706 416 l 563 416 l 519 293 l 670 293 l 640 209 l 490 209 l 414 -3 l 321 -3 l 397 209 l 274 209 l 197 -3 l 104 -3 l 180 209 l 34 209 l 64 293 l 209 293 l 253 416 l 99 416 l 129 500 l 283 500 z"},",":{"x_min":0,"x_max":238,"ha":238,"o":"m 26 -124 q 26 -115 34 -89 q 42 -62 45 -47 q 51 -9 64 35 q 78 80 88 100 q 92 108 101 109 q 108 110 112 111 q 115 112 120 118 q 125 125 133 125 q 141 125 164 111 q 186 97 186 87 q 186 82 160 27 q 133 -28 113 -79 q 92 -130 84 -145 q 75 -159 68 -159 q 57 -159 41 -144 q 26 -128 26 -124 z"},"n":{"x_min":0,"x_max":366,"ha":366,"o":"m 120 -22 q 107 -22 91 -16 q 75 -10 61 -1 q 55 3 52 23 q 49 43 49 76 q 49 145 50 230 q 51 316 51 334 q 51 345 50 360 q 50 375 50 379 q 50 405 58 412 q 66 419 96 419 q 113 419 122 413 q 130 408 130 395 q 130 393 129 389 q 129 385 129 384 q 129 381 130 379 q 131 378 133 378 q 133 378 156 413 q 179 448 202 448 q 266 448 291 416 q 317 384 317 287 q 317 220 313 132 q 309 43 309 33 q 308 16 300 8 q 292 0 276 0 q 244 0 226 17 q 208 34 208 65 q 208 75 212 158 q 216 241 216 315 q 216 331 214 340 q 213 348 210 348 q 188 348 166 270 q 144 191 144 75 q 144 66 145 44 q 146 22 146 8 q 146 -9 141 -16 q 136 -22 120 -22 z"},"h":{"x_min":0,"x_max":363,"ha":363,"o":"m 116 -6 q 80 -6 63 15 q 46 35 46 79 q 46 87 46 105 q 47 124 47 134 q 47 144 45 221 q 44 298 44 366 l 44 396 q 44 399 44 415 q 45 477 45 535 q 45 555 44 586 q 43 618 43 630 q 43 656 50 679 q 52 684 52 686 q 52 697 56 701 q 61 706 71 706 q 113 706 127 695 q 142 683 142 636 l 142 619 q 142 604 142 576 q 141 549 141 537 q 141 530 142 510 q 142 490 142 476 q 142 437 137 396 q 136 386 136 384 q 136 379 137 377 q 139 375 142 375 q 143 375 161 401 q 179 427 202 427 q 216 427 246 415 q 275 403 287 392 q 305 375 312 344 q 320 313 320 252 q 320 230 318 208 q 316 185 316 184 q 316 180 317 174 q 318 167 318 164 q 318 95 309 30 q 307 20 307 18 q 307 15 308 8 q 308 1 308 -4 q 308 -12 297 -22 q 285 -32 275 -32 q 243 -32 228 -18 q 212 -4 212 24 q 212 41 214 111 q 217 181 217 233 l 217 264 q 217 303 215 315 q 213 326 208 326 q 189 326 164 247 q 139 167 139 61 q 139 56 140 42 q 140 28 140 20 q 140 8 134 1 q 127 -6 116 -6 z"},"z":{"x_min":0,"x_max":324,"ha":324,"o":"m 16 66 q 16 89 45 126 q 65 150 75 167 q 111 226 153 280 q 195 334 195 337 q 195 338 191 341 q 188 343 183 343 q 175 343 160 341 q 146 339 139 339 q 136 339 130 339 q 124 340 121 340 q 100 340 90 330 q 80 321 76 321 q 66 321 56 342 q 47 364 47 380 l 47 389 q 47 392 46 400 q 46 408 46 413 q 46 420 54 424 q 62 428 78 428 l 92 428 q 98 428 153 434 q 209 440 253 440 q 272 440 294 409 q 317 378 317 368 q 317 363 284 310 q 251 256 208 199 q 195 182 175 155 q 137 104 137 101 q 137 98 144 96 q 150 94 162 94 q 166 94 171 95 q 176 95 176 95 q 186 95 199 94 q 212 92 216 92 l 226 92 q 229 92 245 85 q 260 78 262 74 q 264 72 264 63 q 265 55 266 51 q 267 46 272 38 q 277 30 277 26 l 277 19 q 277 3 274 0 q 271 -3 256 -3 q 251 -3 243 -2 q 234 -2 230 -2 q 227 -2 212 -3 q 197 -5 185 -5 q 177 -5 161 -2 q 145 0 137 0 q 133 0 125 0 q 117 -1 114 -1 q 107 -1 94 1 q 81 3 74 3 q 71 3 65 0 q 60 -3 56 -3 q 47 -3 31 26 q 16 55 16 66 z"},"B":{"x_min":0,"x_max":491,"ha":491,"o":"m 185 382 q 205 382 227 392 q 248 402 276 425 q 312 455 330 480 q 348 505 348 525 q 348 550 321 570 q 293 589 255 589 q 215 589 198 583 q 181 576 181 559 q 181 557 182 548 q 182 540 182 533 q 182 514 179 488 q 177 463 177 457 q 177 450 179 436 q 181 422 181 416 q 181 410 180 400 q 178 390 178 386 q 178 384 180 383 q 181 382 185 382 z m 173 112 q 173 105 177 103 q 181 101 193 101 q 209 101 244 117 q 278 133 307 156 q 321 167 328 179 q 335 191 335 202 q 335 231 304 252 q 273 274 228 274 q 228 274 225 274 q 212 273 201 273 q 181 273 176 260 q 172 247 172 202 q 172 194 173 172 q 174 150 174 137 q 174 130 173 122 q 173 114 173 112 z m 68 42 q 68 43 66 53 q 65 62 65 70 q 65 72 66 83 q 69 135 69 185 q 69 238 68 306 q 68 374 68 389 q 68 402 68 450 q 69 498 69 532 q 69 552 67 583 q 65 614 65 624 q 65 645 68 651 q 72 658 81 663 q 90 669 132 678 q 173 687 208 687 l 249 687 q 290 687 310 682 q 331 677 348 664 q 396 631 422 585 q 448 539 448 489 q 448 451 428 416 q 409 381 369 348 q 363 343 351 338 q 340 333 340 329 q 340 327 352 322 q 363 317 372 311 q 404 289 428 245 q 451 202 451 164 q 451 124 421 89 q 391 55 335 31 q 284 10 240 0 q 197 -11 164 -11 q 161 -11 157 -10 q 155 -10 155 -10 q 150 -10 148 -11 q 147 -11 146 -14 q 139 -27 130 -27 q 120 -27 93 -7 q 66 12 66 19 q 66 21 67 29 q 68 36 68 42 z"},"K":{"x_min":0,"x_max":458,"ha":458,"o":"m 63 64 q 63 80 62 117 q 62 155 62 177 q 62 199 65 270 q 68 341 68 391 q 68 405 67 451 q 67 498 67 530 q 67 607 72 652 q 77 697 86 697 q 113 697 139 690 q 166 684 173 675 q 177 670 180 631 q 182 592 182 520 q 182 504 181 470 q 179 436 179 418 q 179 403 180 395 q 181 386 183 386 q 185 386 233 465 q 280 543 329 618 q 352 654 377 683 q 401 713 406 713 q 413 713 445 691 q 476 669 476 657 q 476 653 446 605 q 415 558 387 508 q 358 457 321 395 q 283 333 283 327 q 283 317 330 249 q 358 208 375 182 q 426 104 444 75 q 462 45 462 38 q 462 33 441 10 q 420 -13 411 -13 q 403 -13 375 15 q 346 43 306 92 q 266 140 226 198 q 187 256 180 256 q 179 256 178 254 q 178 253 178 245 q 178 244 178 240 q 179 226 179 213 q 179 193 177 140 q 174 87 170 22 q 168 -8 163 -17 q 159 -26 149 -26 q 120 -26 91 -10 q 62 5 62 19 q 62 20 62 23 q 63 43 63 64 z"},"R":{"x_min":0,"x_max":495,"ha":495,"o":"m 172 390 q 172 384 173 377 q 174 370 174 369 l 174 361 l 174 357 q 174 354 176 353 q 177 352 180 352 q 192 352 215 366 q 238 379 276 410 q 322 447 339 478 q 357 508 357 546 q 357 564 347 573 q 338 583 320 583 q 312 583 303 583 q 294 582 294 582 q 289 582 281 583 q 273 584 270 584 q 251 584 213 569 q 201 564 193 561 q 183 557 181 555 q 179 552 179 545 l 179 535 q 179 529 179 514 q 178 500 178 491 l 178 459 q 178 440 175 417 q 172 394 172 390 z m 153 -20 q 150 -20 138 -15 q 125 -10 115 -7 q 110 -6 102 -4 q 83 -1 76 5 q 69 11 65 53 q 62 96 62 180 q 62 225 63 301 q 65 378 65 409 l 65 520 q 65 568 70 615 q 75 662 77 664 q 83 669 94 677 q 105 685 106 685 q 109 685 127 675 q 145 665 153 665 q 154 665 158 667 q 205 689 281 689 q 315 689 351 674 q 386 659 408 635 q 432 609 452 568 q 472 527 472 504 q 472 469 454 435 q 436 400 391 350 q 366 321 335 300 q 304 279 304 276 q 304 275 336 230 q 367 186 396 140 q 405 125 421 102 q 462 37 462 24 q 462 19 454 12 q 445 6 443 2 q 442 1 438 -10 q 435 -22 428 -22 q 404 -22 381 -4 q 358 13 307 77 q 271 122 226 188 q 182 255 175 255 q 173 255 172 253 q 171 251 171 249 q 171 247 172 238 q 174 229 174 221 q 174 216 172 185 q 170 155 170 129 l 170 76 q 170 67 168 50 q 166 32 166 23 q 166 20 167 14 q 167 9 167 6 q 167 -8 164 -14 q 161 -20 153 -20 z"},"T":{"x_min":0,"x_max":391,"ha":391,"o":"m 141 567 q 109 562 84 560 q 59 557 54 557 q 52 557 50 560 q 49 562 49 567 q 49 568 43 576 q 20 611 20 625 q 20 626 21 628 q 21 630 21 631 q 21 635 19 642 q 17 649 17 651 q 17 656 23 662 q 30 669 40 671 q 79 679 112 684 q 146 690 150 690 q 206 696 263 707 q 276 709 278 709 q 282 709 288 708 q 294 706 297 706 q 301 706 309 709 q 317 712 321 712 q 324 712 329 710 q 334 709 337 709 q 338 709 342 709 q 345 710 346 710 q 352 710 366 693 q 380 676 380 664 q 380 640 373 621 q 366 602 356 600 q 326 596 290 593 q 257 590 257 580 q 257 578 257 572 q 258 567 258 563 q 258 561 257 546 q 251 408 251 240 q 251 182 252 122 q 253 62 253 60 q 253 43 251 26 q 249 9 249 9 q 249 7 252 3 q 255 -1 255 -4 q 255 -11 248 -15 q 240 -20 229 -20 q 185 -20 161 -3 q 138 13 138 45 q 138 56 139 68 q 139 80 139 81 q 139 94 138 128 q 136 162 136 182 q 136 213 137 262 q 137 311 137 328 l 137 443 q 137 464 139 498 q 141 532 141 545 z"},"P":{"x_min":0,"x_max":426,"ha":426,"o":"m 177 369 q 177 357 179 352 q 181 347 187 347 q 223 347 250 390 q 278 434 278 499 q 278 545 263 564 q 248 584 212 584 l 195 584 q 183 584 180 576 q 177 569 177 525 q 177 518 178 502 q 179 486 179 479 q 179 473 178 459 q 177 446 177 438 q 177 429 178 415 q 180 401 180 396 q 180 388 178 379 q 177 370 177 369 z m 70 15 q 70 17 69 30 q 64 140 64 273 q 64 300 65 353 q 66 406 66 431 q 66 482 65 556 q 64 631 64 654 q 64 678 86 685 q 108 693 190 693 q 229 693 256 685 q 283 678 307 660 q 349 630 377 585 q 405 540 405 503 q 405 433 369 367 q 334 302 279 270 q 250 253 215 239 q 179 226 179 223 q 179 219 180 213 q 180 206 180 204 q 180 193 180 177 q 179 161 179 155 q 179 143 181 114 q 183 85 183 70 q 183 44 177 20 q 176 15 176 14 q 176 10 179 5 q 182 -1 182 -4 q 182 -17 174 -26 q 165 -36 153 -36 q 124 -36 97 -21 q 70 -6 70 15 z"},"|":{"x_min":0,"x_max":500,"ha":500,"o":"m 207 764 l 294 764 l 294 -236 l 207 -236 z"},"t":{"x_min":0,"x_max":271,"ha":271,"o":"m 167 -24 q 153 -24 125 -14 q 96 -5 90 2 q 85 8 83 29 q 81 49 81 125 q 81 135 82 169 q 83 203 83 226 q 83 231 82 250 q 80 270 80 284 q 80 290 82 297 q 83 304 83 305 q 83 307 69 311 q 55 315 53 315 q 52 315 49 312 q 46 310 44 310 q 34 310 23 334 q 11 358 11 376 q 11 381 17 388 q 23 394 31 394 q 33 394 36 394 q 39 393 39 393 q 42 393 50 395 q 57 396 61 396 q 79 396 83 401 q 87 407 87 431 l 87 456 q 87 461 86 480 q 86 498 86 511 q 86 513 86 523 q 87 533 87 540 q 87 544 86 548 q 85 552 85 553 q 85 557 86 562 q 88 567 88 569 q 88 570 87 575 q 86 579 86 581 q 86 589 93 594 q 99 598 111 598 q 149 598 172 585 q 195 572 195 552 q 195 548 194 537 q 193 527 191 514 q 190 510 190 505 q 190 500 190 490 q 190 479 190 474 q 189 468 189 463 q 189 460 186 454 q 183 448 183 444 q 183 441 185 436 q 187 430 187 428 q 187 426 187 423 q 186 420 186 419 q 186 413 188 411 q 189 409 194 409 q 195 409 201 410 q 207 410 211 410 q 212 410 215 410 q 218 409 220 409 q 222 409 228 410 q 233 410 237 410 q 247 410 250 404 q 253 397 253 376 q 253 375 252 368 q 251 362 251 357 q 251 353 253 346 q 255 340 255 339 q 255 337 250 330 q 245 322 242 322 q 241 322 238 323 q 234 325 231 325 q 206 325 193 321 q 180 316 180 308 q 180 306 182 296 q 184 286 184 278 q 184 263 182 225 q 180 188 180 166 q 180 140 181 106 q 182 73 182 64 q 182 52 182 35 q 181 18 181 14 l 181 -2 q 181 -13 177 -18 q 174 -24 167 -24 z"},"M":{"x_min":0,"x_max":602,"ha":602,"o":"m 64 45 q 64 55 62 80 q 61 105 61 121 q 61 234 62 334 q 64 435 67 513 q 68 542 69 588 q 70 661 82 661 l 86 661 q 89 661 95 664 q 101 667 104 667 q 107 667 115 664 q 124 661 129 660 q 142 657 166 655 q 191 652 200 651 q 212 649 219 643 q 225 638 228 626 q 251 539 269 435 q 287 330 294 330 q 301 330 317 408 q 333 486 351 552 q 359 580 370 624 q 393 711 414 711 q 427 711 450 705 q 473 698 502 687 q 524 678 529 673 q 534 668 534 658 q 534 657 534 647 q 533 636 533 626 q 533 623 534 611 q 535 598 535 589 q 535 567 535 528 q 534 490 534 473 q 534 454 536 411 q 537 369 537 345 q 537 316 536 268 q 535 220 535 200 q 535 182 536 151 q 537 120 537 107 q 537 93 535 69 q 533 44 533 34 q 533 33 533 31 q 534 21 534 13 q 534 0 531 -6 q 527 -13 521 -13 q 482 -13 452 1 q 422 16 422 31 q 422 122 428 250 q 434 379 434 416 q 434 455 431 465 q 427 476 418 476 q 412 476 395 390 q 378 304 357 221 q 351 195 342 157 q 329 98 313 98 q 306 98 284 108 q 261 118 253 125 q 247 130 245 141 q 244 151 241 159 q 233 183 222 229 q 212 276 198 350 q 192 379 188 416 q 184 452 179 452 q 175 452 171 446 q 166 440 166 434 q 166 429 167 421 q 167 413 167 410 q 167 398 166 374 q 165 351 165 339 q 165 312 168 237 q 171 161 171 112 q 171 104 170 86 q 170 68 170 58 q 170 30 173 2 q 174 -3 174 -5 q 174 -11 171 -15 q 168 -19 164 -19 q 163 -19 151 -16 q 140 -13 128 -11 q 125 -11 120 -10 q 86 -4 80 7 q 77 13 71 22 q 64 36 64 39 z"},"g":{"x_min":0,"x_max":354,"ha":354,"o":"m 194 345 q 185 345 179 338 q 173 331 165 310 q 144 253 132 192 q 119 130 119 94 q 119 86 122 81 q 124 76 128 76 q 130 76 137 83 q 144 91 167 122 q 179 137 189 161 q 199 186 199 191 q 199 198 199 206 q 198 215 198 217 q 198 248 201 285 q 204 322 204 328 q 204 338 202 342 q 200 345 194 345 z m 180 -250 q 167 -250 146 -237 q 124 -225 98 -202 q 63 -172 52 -155 q 41 -139 41 -121 q 41 -105 44 -99 q 47 -92 55 -92 q 56 -92 58 -92 q 60 -93 60 -93 q 62 -93 69 -88 q 76 -84 81 -84 q 91 -84 98 -94 q 104 -105 109 -108 q 125 -121 145 -132 q 164 -142 171 -142 q 196 -142 203 -126 q 209 -111 209 -47 q 209 -23 207 2 q 205 26 205 27 l 205 39 q 205 42 204 43 q 204 44 202 44 q 201 44 195 37 q 159 -7 134 -7 q 119 -7 97 5 q 75 18 57 38 q 42 55 36 72 q 30 89 30 126 q 30 173 39 226 q 47 278 63 327 q 83 388 107 416 q 131 445 163 445 q 189 445 212 425 q 234 406 243 406 q 245 406 249 406 q 253 407 256 407 q 274 407 294 392 q 315 377 315 357 q 315 356 314 352 q 297 290 297 159 q 297 150 297 140 q 298 130 298 128 q 298 79 303 6 q 309 -68 309 -90 q 309 -154 267 -202 q 226 -250 180 -250 z"},"j":{"x_min":0,"x_max":227,"ha":227,"o":"m 54 564 q 54 574 58 586 q 61 599 61 602 q 61 602 61 604 q 60 605 60 606 q 60 618 74 628 q 88 639 103 639 q 134 639 156 620 q 177 601 177 575 l 177 567 q 177 564 177 556 q 178 547 178 542 q 178 528 159 514 q 140 500 116 500 q 105 500 96 507 q 86 514 78 528 q 70 540 62 549 q 54 557 54 564 z m 56 -157 q 63 -157 65 -138 q 68 -120 68 -34 q 68 -13 66 30 q 65 72 65 94 l 65 115 q 65 123 67 171 q 69 219 69 259 q 69 316 73 359 q 74 365 74 366 q 74 374 71 383 q 68 392 68 393 q 68 395 70 400 q 72 405 72 409 q 72 411 70 417 q 69 422 69 425 q 69 435 73 441 q 76 448 81 448 q 85 448 93 446 q 100 443 104 443 q 106 443 111 443 q 116 444 119 444 q 130 444 150 434 q 171 423 171 419 q 171 418 170 414 q 169 410 169 407 q 169 399 169 390 q 170 381 170 379 q 170 366 167 336 q 165 306 165 289 q 165 216 167 128 q 168 40 168 26 q 168 21 167 0 q 167 -20 167 -34 q 167 -42 169 -62 q 171 -83 171 -97 q 171 -172 154 -215 q 137 -258 108 -258 q 104 -258 98 -257 q 92 -256 91 -256 q 88 -256 83 -257 q 79 -258 76 -258 q 74 -258 68 -256 q 63 -255 60 -255 q 59 -255 58 -255 q 56 -256 55 -256 q 54 -256 42 -248 q 30 -240 20 -233 q 7 -225 0 -211 q -8 -197 -8 -181 q -8 -164 0 -151 q 8 -139 16 -139 q 24 -139 39 -148 q 54 -157 56 -157 z"},"i":{"x_min":0,"x_max":227,"ha":227,"o":"m 134 497 q 99 497 80 512 q 61 528 61 555 q 61 558 62 562 q 63 567 63 570 q 63 574 62 579 q 60 584 60 586 q 60 609 75 627 q 90 644 115 644 q 131 644 147 629 q 163 614 163 609 q 163 599 168 586 q 174 574 174 571 q 174 537 162 517 q 150 497 134 497 z m 136 -21 q 91 -21 76 -1 q 61 19 61 107 l 61 131 q 61 172 62 221 q 62 270 62 278 l 62 331 q 62 410 66 427 q 71 444 91 444 q 129 444 151 433 q 172 421 172 401 q 172 399 171 392 q 166 330 166 255 q 166 253 166 245 q 165 199 165 155 l 165 100 q 165 74 166 43 q 167 13 167 10 q 167 -5 159 -13 q 151 -21 136 -21 z"},"y":{"x_min":0,"x_max":331,"ha":331,"o":"m 90 -169 q 90 -140 104 -88 q 118 -36 121 -16 q 125 8 128 15 q 129 17 129 17 q 129 23 118 29 q 106 34 102 38 q 93 45 85 66 q 76 88 68 122 q 61 152 53 198 q 45 243 39 295 q 34 329 31 365 q 29 400 29 417 q 29 423 32 428 q 36 434 40 434 q 47 434 59 431 q 70 428 73 428 q 96 428 108 415 q 120 402 122 375 q 123 364 132 319 q 141 275 141 252 l 141 241 q 141 217 149 181 q 156 145 159 145 q 162 145 164 149 q 166 152 166 159 l 166 168 q 166 179 184 257 q 202 335 211 399 q 218 443 224 460 q 230 477 240 477 q 242 477 262 470 q 283 462 301 454 q 313 448 318 443 q 323 438 323 430 q 323 424 314 381 q 305 339 292 287 q 270 199 252 119 q 234 39 230 10 q 224 -27 208 -91 q 193 -155 189 -176 q 186 -193 182 -217 q 175 -257 162 -257 q 145 -257 115 -239 q 85 -221 85 -201 q 85 -192 87 -182 q 90 -171 90 -169 z"},"@":{"x_min":0,"x_max":1000,"ha":1000,"o":"m 573 138 q 546 96 511 76 q 475 56 425 56 q 351 56 311 98 q 272 141 272 220 q 272 334 339 413 q 407 492 502 492 q 545 492 575 475 q 604 458 623 423 l 650 475 l 725 475 l 653 189 q 652 187 652 183 q 649 169 649 165 q 649 146 662 135 q 675 124 696 124 q 721 124 748 139 q 776 154 800 180 q 835 217 854 267 q 872 316 872 372 q 872 496 781 573 q 689 650 542 650 q 475 650 417 635 q 359 620 312 589 q 224 534 176 447 q 128 360 128 254 q 128 102 230 10 q 333 -81 503 -81 q 584 -81 661 -57 q 738 -33 803 12 l 836 -36 q 763 -91 680 -119 q 598 -147 507 -147 q 413 -147 335 -124 q 258 -100 198 -54 q 123 3 85 80 q 48 157 48 255 q 48 335 73 408 q 99 480 148 541 q 220 628 321 674 q 421 719 545 719 q 626 719 699 697 q 771 675 823 635 q 888 585 920 520 q 952 455 952 373 q 952 294 920 226 q 889 157 830 110 q 796 83 757 69 q 717 55 675 55 q 623 55 598 75 q 573 95 573 136 z m 602 345 q 595 386 572 409 q 549 431 512 431 q 450 431 406 368 q 362 306 362 217 q 362 169 384 143 q 406 117 447 117 q 491 117 527 150 q 562 182 575 234 z"},".":{"x_min":0,"x_max":238,"ha":238,"o":"m 40 36 q 40 68 55 86 q 63 96 67 105 q 72 118 84 127 q 97 136 102 136 q 105 136 116 131 q 127 126 128 126 q 132 126 136 127 q 137 127 137 127 q 144 127 166 99 q 188 71 188 57 q 188 42 181 25 q 174 8 168 8 q 167 8 166 8 q 164 9 163 9 q 163 9 163 8 q 160 -3 127 -13 q 117 -16 109 -20 q 101 -24 100 -24 q 87 -24 63 -5 q 40 13 40 36 z"},"p":{"x_min":0,"x_max":370,"ha":370,"o":"m 167 145 q 167 123 166 101 q 166 98 166 97 q 166 92 168 88 q 169 84 171 84 q 176 84 185 101 q 194 117 210 159 q 230 214 237 243 q 243 273 243 301 q 243 329 236 345 q 229 361 217 361 q 202 361 184 350 q 167 338 167 325 q 167 325 167 313 q 168 301 168 289 q 168 271 167 245 q 167 220 167 212 l 167 203 z m 65 -169 q 65 -165 63 -146 q 61 -126 61 -110 q 61 -106 62 -79 q 64 -51 64 -27 q 64 -19 63 -1 q 63 16 63 25 q 63 47 64 94 q 66 140 66 164 q 66 178 64 198 q 63 219 63 225 q 63 226 63 232 q 64 239 64 245 q 64 251 51 266 q 37 281 37 289 q 37 290 52 314 q 68 338 68 369 q 68 372 67 384 q 67 395 67 404 q 67 463 72 482 q 77 501 91 501 q 117 501 143 482 q 168 464 168 448 l 168 443 q 168 440 169 439 q 170 437 171 437 q 174 437 181 438 q 188 440 193 440 q 260 440 304 397 q 348 355 348 287 q 348 257 332 197 q 316 136 294 94 q 271 49 246 20 q 221 -10 207 -10 q 201 -10 192 -8 q 182 -6 179 -6 q 170 -6 167 -10 q 164 -14 164 -30 l 164 -38 q 164 -43 165 -67 q 166 -90 166 -109 q 166 -131 164 -160 q 162 -190 162 -197 l 162 -213 q 162 -239 158 -247 q 153 -254 142 -254 q 122 -254 92 -238 q 63 -221 63 -202 q 63 -200 64 -189 q 65 -178 65 -169 z"},"X":{"x_min":0,"x_max":433,"ha":433,"o":"m 22 27 q 44 81 82 168 q 139 301 139 325 q 139 336 116 395 q 101 434 92 459 q 64 536 48 589 q 32 643 32 656 q 32 667 36 672 q 41 677 50 677 q 61 677 74 670 q 87 663 89 663 q 106 663 119 656 q 131 648 144 630 q 153 617 159 604 q 166 590 172 571 q 178 554 193 518 q 208 482 208 468 q 208 465 209 463 q 209 461 211 461 q 212 461 243 531 l 257 562 q 304 667 322 698 q 339 728 350 728 q 369 728 400 702 q 431 675 431 659 q 431 658 422 642 q 381 567 341 475 q 317 420 300 375 q 282 331 282 327 q 282 321 301 271 q 319 221 347 154 q 367 105 379 71 q 391 37 391 27 q 391 12 387 4 q 382 -3 373 -3 q 367 -3 354 -2 q 340 -1 333 -1 q 313 -1 302 10 q 290 21 277 46 q 261 80 239 128 q 215 182 211 182 q 208 182 191 146 q 175 110 152 51 q 145 34 137 8 q 125 -30 107 -30 q 82 -30 44 7 q 30 20 22 27 z"},"*":{"x_min":0,"x_max":500,"ha":500,"o":"m 108 378 q 108 385 120 406 q 132 427 146 441 q 153 448 177 464 q 201 480 201 487 q 201 494 191 497 q 181 500 156 500 q 153 500 142 497 q 130 493 122 493 q 100 493 83 516 q 66 538 66 561 q 66 582 75 593 q 84 604 102 604 q 126 604 169 573 q 212 543 213 543 q 217 543 219 546 q 222 549 222 554 q 222 559 213 580 q 204 601 198 619 q 195 628 191 637 q 187 646 187 648 q 187 668 212 686 q 238 704 257 704 q 273 704 282 693 q 291 682 291 661 q 291 642 282 603 q 273 564 273 551 q 273 544 274 543 q 275 541 277 541 q 290 541 314 579 q 338 617 359 617 q 381 617 409 596 q 438 575 438 558 q 438 547 420 533 q 402 520 378 512 q 362 507 331 503 q 301 499 301 491 q 301 477 342 455 q 384 434 384 411 q 384 386 368 361 q 353 336 336 336 q 322 336 303 356 q 285 375 274 402 q 269 415 262 435 q 253 459 248 459 q 241 459 235 443 q 229 426 224 397 q 220 363 206 352 q 193 341 160 341 q 133 341 120 350 q 108 359 108 378 z"},"Y":{"x_min":0,"x_max":424,"ha":424,"o":"m 138 54 q 138 64 139 85 q 140 105 140 115 q 140 118 140 124 q 139 130 139 133 q 139 155 143 189 q 146 223 146 235 q 146 250 115 334 q 101 375 92 400 q 83 426 61 482 q 39 537 33 562 q 27 585 20 614 q 13 642 13 643 q 13 647 18 661 q 22 675 26 675 q 27 675 28 674 q 30 674 31 674 q 33 674 36 675 q 40 677 41 677 q 43 677 49 672 q 55 668 61 668 l 69 668 q 92 668 125 598 q 135 579 140 568 q 168 513 186 464 q 205 414 205 414 q 209 414 242 493 q 274 573 309 645 q 313 653 320 668 q 358 746 371 746 q 388 746 416 727 q 443 708 443 690 q 443 685 395 575 q 346 466 304 354 q 298 339 289 314 q 267 256 265 242 q 264 234 262 191 q 262 170 261 158 q 260 134 256 92 q 253 49 253 33 l 253 16 q 253 -3 248 -10 q 243 -18 230 -18 q 227 -18 209 -13 q 190 -9 169 -2 q 151 4 145 11 q 138 19 138 38 z"},"c":{"x_min":0,"x_max":324,"ha":324,"o":"m 29 166 q 29 216 41 272 q 53 329 69 360 q 74 370 83 387 q 116 451 134 451 q 144 451 184 441 q 224 430 242 421 q 276 405 281 391 q 285 377 285 310 q 285 272 275 254 q 266 237 245 237 q 242 237 235 240 q 229 244 223 244 q 208 244 198 260 q 189 276 189 301 q 189 310 190 323 q 191 337 191 341 q 191 349 188 352 q 186 356 181 356 q 169 356 163 329 q 161 319 160 315 q 159 311 156 301 q 130 200 130 98 q 130 78 134 67 q 138 56 145 56 q 161 56 184 87 q 193 100 198 106 q 208 118 221 153 q 234 188 247 188 q 260 188 282 168 q 304 147 304 137 q 304 124 293 92 q 282 60 266 38 q 247 10 225 -6 q 203 -22 184 -22 q 165 -22 143 -12 q 121 -2 79 26 q 49 47 39 76 q 29 105 29 166 z"},"!":{"x_min":0,"x_max":299,"ha":299,"o":"m 158 161 q 157 161 139 167 q 122 172 121 173 q 111 180 105 215 q 100 250 100 309 q 100 314 101 333 q 102 401 102 460 l 102 501 q 102 551 106 603 q 111 655 111 657 q 111 662 110 669 q 110 677 110 680 q 110 684 115 691 q 121 699 122 699 l 125 699 q 126 699 129 702 q 132 704 134 704 q 135 704 137 702 q 140 700 141 700 q 142 700 144 702 q 147 704 149 704 q 155 704 186 697 q 217 689 227 683 q 234 679 238 673 q 242 667 242 660 q 242 659 239 649 q 225 602 220 556 q 218 539 213 466 q 208 393 203 339 q 198 289 195 247 q 192 205 192 191 l 192 184 q 192 169 185 165 q 177 161 158 161 z m 77 52 q 77 75 88 87 q 92 92 95 96 q 99 102 106 112 q 123 138 142 138 q 167 138 195 113 q 223 88 223 50 q 223 28 204 2 q 184 -23 167 -23 q 165 -23 160 -22 q 155 -21 152 -21 l 143 -21 q 124 -21 100 2 q 77 26 77 52 z"},"/":{"x_min":0,"x_max":428,"ha":428,"o":"m 66 -89 q 51 -89 40 -76 q 30 -64 30 -55 q 92 105 222 421 q 287 580 322 650 q 357 719 371 719 q 394 719 415 705 q 435 690 435 675 q 435 671 425 657 q 419 649 416 644 q 371 577 252 297 l 249 289 q 204 183 154 41 q 109 -84 89 -84 l 83 -84 q 80 -84 74 -86 q 69 -89 66 -89 z"},"[":{"x_min":0,"x_max":317,"ha":317,"o":"m 75 -63 q 75 -62 76 -56 q 79 -9 79 45 q 79 128 84 282 q 89 436 89 506 q 89 576 84 644 q 83 655 83 657 q 83 683 106 689 q 129 696 213 696 q 243 696 264 692 q 285 688 291 681 q 294 677 304 647 q 314 618 314 613 q 314 600 264 600 q 214 599 196 594 q 190 592 188 530 q 188 502 187 486 q 183 367 180 267 q 177 167 177 148 q 177 87 178 37 q 180 -13 181 -26 q 182 -38 185 -41 q 188 -44 196 -44 q 207 -44 231 -39 q 255 -34 269 -34 q 273 -34 283 -50 q 292 -65 304 -65 l 312 -65 q 320 -65 323 -72 q 326 -79 326 -96 q 326 -107 321 -113 q 315 -119 291 -125 q 248 -136 202 -145 q 156 -154 150 -154 q 138 -154 119 -126 q 110 -113 105 -107 q 100 -101 91 -90 q 75 -71 75 -63 z"},"6":{"x_min":0,"x_max":477,"ha":477,"o":"m 239 325 q 198 325 176 291 q 155 257 155 191 q 155 135 168 102 q 181 68 201 68 q 242 68 275 118 q 309 168 309 231 q 309 276 291 301 q 272 325 239 325 z m 44 214 q 44 275 67 351 q 91 426 127 484 q 171 554 216 622 q 227 638 228 640 q 230 644 231 649 q 232 656 241 656 l 250 656 q 257 656 265 659 q 268 660 268 660 q 269 660 274 659 q 279 657 284 657 l 290 657 q 302 657 319 646 q 336 634 336 624 q 336 620 333 616 q 330 613 323 611 q 313 607 305 590 q 302 583 299 578 q 253 498 230 454 q 207 410 207 404 q 207 403 207 402 q 208 402 208 402 q 210 402 219 402 q 227 403 233 403 q 258 403 300 387 q 342 372 370 352 q 392 336 411 296 q 430 256 430 216 q 430 174 409 126 q 388 78 351 38 q 328 13 295 -4 q 263 -21 238 -21 q 220 -21 180 -6 q 140 9 126 19 q 91 44 67 99 q 44 153 44 214 z"},"r":{"x_min":0,"x_max":271,"ha":271,"o":"m 52 54 q 52 59 51 70 q 50 82 50 89 q 50 152 53 240 q 56 328 56 353 q 56 359 56 372 q 55 384 55 391 q 55 407 59 413 q 62 419 70 419 q 116 419 131 397 q 133 394 134 394 q 136 394 147 419 q 158 445 178 445 q 219 445 239 433 q 260 420 260 396 q 260 394 259 389 q 259 385 259 383 q 259 377 261 366 q 263 354 263 349 q 263 340 254 324 q 246 308 243 301 q 241 296 238 289 q 229 267 221 267 q 212 267 199 276 q 187 286 181 297 q 178 303 175 320 q 171 336 164 336 q 161 336 159 330 q 157 324 157 315 q 157 302 154 233 q 150 163 150 106 q 150 100 150 79 q 151 59 151 44 q 151 30 149 15 q 147 1 147 1 q 147 0 147 -1 q 148 -5 148 -10 q 148 -14 141 -18 q 134 -21 124 -21 q 104 -21 85 -17 q 66 -12 65 -8 q 56 14 52 32 z"},"2":{"x_min":0,"x_max":431,"ha":431,"o":"m 78 45 q 78 53 71 68 q 63 83 63 93 q 63 108 113 169 q 163 229 201 293 q 249 371 275 427 q 301 484 301 507 q 301 510 298 512 q 295 514 291 514 q 273 514 236 491 q 198 468 158 430 q 143 416 119 382 q 96 348 84 348 q 76 348 53 386 q 30 423 30 434 q 30 450 41 453 q 42 454 43 454 q 48 457 55 468 q 57 472 58 474 q 65 487 96 513 q 113 528 122 537 q 169 582 207 602 q 244 621 281 621 q 306 621 339 583 q 345 576 349 572 q 380 539 389 517 q 398 496 398 468 q 398 434 380 388 q 361 343 303 244 q 275 197 245 154 q 214 110 214 109 q 214 107 219 105 q 224 103 229 103 q 235 103 254 105 q 273 107 286 107 q 363 107 396 88 q 429 68 429 24 q 429 11 400 3 q 371 -5 324 -5 q 317 -5 302 -4 q 286 -3 277 -3 q 271 -3 260 -3 q 249 -4 245 -4 q 235 -4 219 -2 q 204 -1 197 -1 q 191 -1 163 -4 q 135 -8 114 -8 q 105 -8 92 9 q 78 25 78 37 z"},"{":{"x_min":0,"x_max":500,"ha":500,"o":"m 427 721 l 427 634 q 423 634 415 634 q 407 635 404 635 q 351 635 332 615 q 313 594 313 530 l 313 412 q 313 336 292 304 q 270 272 214 259 q 270 246 291 214 q 313 182 313 106 l 313 -11 q 313 -76 332 -96 q 352 -117 405 -117 q 408 -117 416 -117 q 423 -116 427 -116 l 427 -202 l 396 -202 q 346 -202 315 -196 q 284 -190 263 -178 q 235 -162 224 -131 q 213 -101 213 -32 l 213 89 q 213 159 187 188 q 162 217 100 217 q 97 217 90 216 q 83 216 79 216 l 79 303 q 83 303 90 302 q 97 302 100 302 q 162 302 187 331 q 213 359 213 429 l 213 550 q 213 621 224 651 q 235 681 263 697 q 285 710 316 716 q 348 721 405 721 z"},"9":{"x_min":0,"x_max":477,"ha":477,"o":"m 158 384 q 158 330 170 314 q 181 298 212 298 q 266 298 289 318 q 312 338 312 390 q 312 460 292 500 q 271 541 237 541 q 211 541 185 488 q 158 434 158 384 z m 143 6 q 143 35 188 82 q 201 95 205 100 q 225 127 249 165 q 272 202 272 204 q 272 206 270 207 q 269 209 267 209 q 266 209 255 206 q 244 202 233 202 q 169 202 107 265 q 45 328 45 405 q 45 443 62 485 q 80 526 115 570 q 134 593 160 609 q 186 625 196 625 q 203 625 218 621 q 233 617 240 616 q 245 615 255 615 q 298 611 325 595 q 375 565 402 505 q 430 444 430 365 q 430 297 401 222 q 371 146 317 77 q 277 25 234 -16 q 192 -57 186 -57 q 180 -57 173 -43 q 165 -30 161 -25 q 160 -23 156 -20 q 143 -9 143 6 z"}," ":{"x_min":0,"x_max":238,"ha":238,"o":""},"I":{"x_min":0,"x_max":250,"ha":250,"o":"m 67 56 q 67 118 66 191 q 65 263 65 273 q 65 426 69 566 q 70 586 70 590 q 70 595 69 611 q 69 626 69 636 q 69 680 76 690 q 83 700 104 700 q 136 700 160 688 q 183 676 183 661 q 183 657 182 648 q 180 639 180 634 q 180 628 181 610 q 182 592 182 581 q 182 570 180 543 q 178 517 178 502 q 178 494 179 477 q 179 460 179 452 q 179 436 177 410 q 176 383 176 372 q 176 367 177 342 q 181 236 181 137 q 181 117 180 87 q 179 57 179 48 q 179 42 180 32 q 180 21 180 16 q 180 -11 175 -19 q 170 -28 156 -28 q 133 -28 99 -6 q 66 15 66 26 q 66 28 66 38 q 67 48 67 56 z"},"H":{"x_min":0,"x_max":491,"ha":491,"o":"m 225 296 q 224 296 210 294 q 197 292 181 289 q 179 289 178 284 q 177 279 177 258 l 177 204 q 177 166 175 127 q 174 88 174 87 q 174 82 174 70 q 175 58 175 52 q 175 45 174 34 q 173 22 173 18 q 173 14 174 8 q 175 1 175 -2 q 175 -7 170 -12 q 166 -17 162 -17 q 160 -17 152 -16 q 144 -14 138 -14 l 128 -14 q 117 -14 102 -7 q 87 0 80 10 q 72 19 69 35 q 66 52 66 102 q 66 176 64 263 q 63 349 63 362 q 63 416 67 489 q 71 562 71 580 q 71 583 70 600 q 70 617 70 630 q 70 647 80 665 q 90 683 102 683 q 157 683 169 671 q 182 659 182 625 q 182 613 181 582 q 179 550 179 530 q 179 514 181 482 q 182 450 182 434 q 182 428 181 422 q 180 415 180 414 q 180 411 181 409 q 182 408 184 408 q 188 408 197 409 q 207 410 213 410 q 216 410 222 410 q 229 409 232 409 q 244 409 262 412 q 281 415 288 415 q 292 415 298 414 q 303 413 304 413 q 308 413 311 470 q 314 526 314 619 q 314 638 312 667 q 311 695 311 705 q 311 727 318 734 q 325 741 345 741 q 375 741 400 728 q 425 715 425 696 q 425 690 424 679 q 423 668 423 663 q 423 656 424 644 q 426 632 426 627 q 426 619 424 588 q 422 557 422 534 q 422 521 424 480 q 427 439 427 412 q 427 397 425 362 q 424 326 424 305 q 424 291 425 257 q 426 223 426 203 q 426 166 422 115 q 419 64 419 51 l 419 26 q 419 13 413 5 q 407 -3 397 -3 q 358 -3 337 11 q 316 25 316 51 l 316 69 q 316 85 313 135 q 310 185 310 218 q 310 236 311 255 q 312 274 312 275 q 312 291 310 296 q 307 302 301 302 q 292 302 272 298 q 252 295 241 295 q 240 295 235 295 q 229 296 225 296 z"},"4":{"x_min":0,"x_max":477,"ha":477,"o":"m 150 276 q 150 273 154 272 q 157 271 162 271 q 167 271 178 272 q 189 274 195 274 q 201 274 214 273 q 228 272 236 272 q 246 272 250 275 q 255 277 255 286 l 255 288 q 255 295 259 321 q 262 346 262 366 q 262 367 262 375 q 261 383 261 390 q 261 411 267 444 q 273 478 273 486 q 273 490 269 494 q 265 498 261 498 q 256 498 231 447 l 225 435 q 177 339 164 310 q 150 280 150 276 z m 237 624 q 282 624 333 606 q 383 588 383 578 q 383 574 379 568 q 376 562 375 558 q 373 553 369 507 q 366 460 366 405 q 366 377 365 347 q 364 316 364 312 q 364 307 365 299 q 365 291 365 288 l 365 284 q 365 277 390 276 q 415 274 422 270 q 431 265 440 237 q 449 209 449 198 q 449 190 443 186 q 436 182 424 182 q 421 182 417 183 q 414 183 413 183 q 398 183 384 180 q 369 178 366 175 q 364 172 363 159 q 362 147 362 101 q 361 59 357 20 q 356 13 356 12 q 356 9 358 -1 q 361 -11 361 -18 q 361 -34 357 -42 q 353 -51 346 -51 q 344 -51 327 -47 q 310 -43 297 -39 q 275 -32 266 -24 q 257 -16 257 -5 q 257 -2 258 2 q 259 7 259 9 q 259 10 258 14 q 251 41 251 75 q 251 107 250 141 q 249 148 249 150 q 249 153 250 159 q 251 164 251 166 q 251 169 247 171 q 242 173 232 173 q 226 173 202 171 q 178 169 160 169 q 144 169 126 168 q 108 167 107 167 q 72 167 64 179 q 60 185 56 187 q 38 199 27 212 q 16 225 16 233 q 16 239 55 312 q 93 386 147 477 q 173 521 197 559 q 221 597 221 597 q 222 599 223 604 q 226 624 237 624 z"},"~":{"x_min":0,"x_max":833,"ha":833,"o":"m 747 383 l 747 293 q 697 258 651 241 q 604 224 561 224 q 540 224 516 228 q 492 232 468 241 q 456 245 431 254 q 327 290 275 290 q 235 290 190 271 q 145 253 87 212 l 87 303 q 139 338 186 356 q 232 373 276 373 q 306 373 337 367 q 368 361 419 344 q 426 342 440 336 q 520 308 562 308 q 604 308 648 326 q 693 344 747 383 z"},"D":{"x_min":0,"x_max":470,"ha":470,"o":"m 174 104 q 174 102 177 100 q 180 98 183 98 q 188 98 212 129 q 237 160 252 190 q 280 246 293 294 q 306 341 306 387 q 306 485 277 531 q 248 578 186 578 q 183 578 181 577 q 179 577 179 575 q 179 573 180 566 q 181 560 181 556 q 181 555 181 548 q 177 496 177 432 q 177 412 175 371 q 174 330 174 309 q 174 280 175 222 q 177 165 177 136 q 177 131 175 121 q 174 110 174 104 z m 175 -30 q 168 -30 149 -20 q 129 -9 117 -4 q 80 11 71 17 q 62 24 62 31 q 62 34 63 41 q 64 47 64 51 q 64 67 62 90 q 61 113 61 121 q 61 135 63 185 q 66 234 66 270 q 66 285 64 323 q 63 360 63 382 q 63 399 63 433 q 64 467 64 484 l 64 600 q 64 607 65 621 q 66 635 66 642 q 66 651 62 663 q 58 674 58 676 q 58 688 83 695 q 108 702 147 702 q 270 702 351 614 q 433 525 433 388 q 433 286 394 194 q 354 102 281 33 q 259 13 222 -9 q 184 -30 175 -30 z"},"^":{"x_min":0,"x_max":1000,"ha":1000,"o":"m 447 713 l 553 713 l 795 439 l 694 439 l 500 633 l 305 439 l 204 439 z"},"0":{"x_min":0,"x_max":477,"ha":477,"o":"m 251 524 q 221 524 188 440 q 154 356 154 253 q 154 177 173 120 q 192 63 214 63 q 250 63 284 142 q 318 222 318 324 q 318 410 298 467 q 278 524 251 524 z m 248 -24 q 207 -24 163 4 q 154 10 151 11 q 100 34 67 103 q 33 171 33 259 q 33 330 52 396 q 70 461 113 537 q 131 570 161 597 q 190 624 199 624 q 206 624 225 614 q 235 608 242 605 q 257 598 283 593 q 310 588 318 586 q 375 571 409 500 q 443 430 443 324 q 443 246 421 173 q 400 99 362 45 q 338 12 309 -6 q 279 -24 248 -24 z"},"F":{"x_min":0,"x_max":375,"ha":375,"o":"m 70 32 q 70 40 68 56 q 67 71 67 78 q 67 88 67 104 q 68 121 68 127 q 68 142 66 181 q 65 220 65 243 q 65 292 65 379 q 66 467 66 507 q 66 515 67 545 q 68 576 68 598 q 68 603 67 621 q 66 638 66 651 q 66 662 68 667 q 71 672 77 673 q 112 679 143 682 q 175 685 190 685 q 262 685 286 682 q 311 680 319 673 q 340 654 350 637 q 359 620 359 601 q 359 585 355 579 q 351 572 339 572 q 337 572 326 572 q 257 570 186 570 q 179 570 176 566 q 173 562 173 554 q 173 549 175 533 q 177 517 177 506 q 177 500 175 466 q 173 433 173 405 q 173 403 175 402 q 176 401 180 401 q 181 401 188 401 q 217 403 244 403 q 288 403 315 384 q 342 365 342 337 q 342 329 334 310 q 330 301 328 296 q 326 290 294 286 q 286 286 281 285 l 239 285 l 212 285 q 190 285 185 283 q 179 281 179 274 q 179 273 179 271 q 180 260 180 251 q 180 238 178 168 q 176 99 176 42 l 176 31 q 176 -8 167 -20 q 159 -32 138 -32 q 121 -32 94 -15 q 67 2 67 14 q 67 15 68 21 q 70 27 70 32 z"},"`":{"x_min":0,"x_max":500,"ha":500,"o":"m 268 490 q 264 490 230 505 q 196 520 170 530 q 160 534 142 539 q 100 550 100 570 q 100 583 124 605 q 148 627 162 627 q 167 627 203 605 q 235 585 257 572 q 263 568 278 562 q 313 549 313 534 q 313 525 295 508 q 276 490 268 490 z"},"k":{"x_min":0,"x_max":340,"ha":340,"o":"m 50 61 q 50 79 48 101 q 47 124 47 129 q 47 146 48 186 q 50 227 50 251 q 50 303 48 359 q 47 414 47 416 q 47 436 48 467 q 50 498 50 509 q 50 521 49 547 q 48 573 48 586 l 48 624 q 48 675 54 689 q 60 702 76 702 q 98 702 124 688 q 151 674 151 660 q 151 658 150 655 q 150 651 150 649 q 150 645 151 639 q 152 633 152 631 q 152 627 150 618 q 148 610 148 606 q 148 602 149 590 q 151 578 151 570 q 151 562 148 529 q 146 496 146 471 q 146 460 146 439 q 147 418 147 408 q 147 403 145 383 q 142 363 142 348 l 142 306 q 142 290 141 274 q 140 270 140 269 q 140 267 142 264 q 144 262 146 262 q 147 262 168 300 q 190 338 209 371 q 218 386 232 411 q 266 468 271 468 q 278 468 302 451 q 327 435 327 430 q 327 408 316 377 q 305 346 271 281 q 265 268 248 241 q 232 215 232 208 q 232 207 251 172 q 271 136 291 94 q 295 85 312 63 q 328 40 328 25 q 328 10 315 6 q 313 5 312 5 q 308 3 300 -6 q 292 -16 284 -16 q 268 -16 213 53 l 212 55 q 192 81 172 117 q 152 153 148 153 q 146 153 145 151 q 143 150 143 148 q 143 145 144 140 q 144 135 144 133 q 144 125 143 111 q 142 97 142 92 q 142 73 146 43 q 149 14 149 3 q 149 -7 145 -13 q 140 -19 133 -19 q 85 -19 67 -7 q 50 5 50 54 z"},"u":{"x_min":0,"x_max":361,"ha":361,"o":"m 158 -14 q 134 -14 103 5 q 72 24 62 48 q 50 75 45 104 q 40 132 40 176 q 40 186 41 211 q 41 236 41 251 q 41 271 45 308 q 46 321 47 328 q 49 348 51 377 q 53 412 56 416 q 59 421 67 426 q 76 430 84 430 q 106 430 130 418 q 153 406 153 389 q 153 371 146 292 q 140 213 140 156 q 140 122 143 97 q 146 73 149 73 q 153 73 171 94 q 188 116 197 141 q 203 156 207 205 q 212 253 212 306 q 212 314 211 328 q 211 342 211 347 q 211 364 213 383 q 216 402 216 404 q 216 410 214 419 q 213 428 213 432 q 213 443 218 448 q 223 452 235 452 q 260 452 286 439 q 313 425 313 412 q 313 408 312 393 q 310 378 310 367 q 310 364 311 330 q 311 297 311 267 q 311 254 311 223 q 310 192 310 174 q 310 164 311 139 q 311 113 311 98 q 311 87 310 69 q 309 51 309 44 q 309 40 310 28 q 311 16 311 8 q 311 -10 307 -20 q 303 -30 296 -30 q 271 -30 249 -17 q 227 -4 227 15 q 227 17 228 22 q 229 27 229 30 q 229 32 228 34 q 226 36 225 36 q 223 36 214 25 q 181 -14 158 -14 z"},"]":{"x_min":0,"x_max":315,"ha":315,"o":"m 62 -136 q 47 -136 42 -132 q 36 -127 30 -112 q 18 -79 15 -72 q 12 -64 12 -63 q 12 -60 23 -51 q 33 -42 36 -42 q 38 -42 43 -43 q 48 -44 52 -44 q 59 -44 78 -42 q 97 -39 109 -39 l 119 -39 q 130 -39 132 -25 q 135 -11 135 36 q 135 48 138 98 q 150 298 150 476 q 150 492 148 518 q 147 544 147 555 q 147 561 148 569 q 149 577 149 579 q 149 588 132 592 q 115 596 68 596 q 36 596 27 607 q 18 618 18 644 l 18 653 q 18 667 20 671 q 22 675 31 680 q 35 682 41 686 q 50 692 54 692 q 60 692 67 691 q 74 690 76 690 q 81 690 118 694 q 155 698 187 698 q 205 698 231 669 q 257 640 257 609 q 257 603 249 462 q 240 321 240 190 l 240 173 l 240 138 q 240 111 238 64 q 235 18 235 -3 q 235 -14 236 -41 q 237 -68 237 -83 q 237 -117 231 -125 q 226 -134 210 -134 q 208 -134 197 -133 q 187 -133 179 -133 q 144 -133 104 -135 q 65 -136 62 -136 z"},"U":{"x_min":0,"x_max":491,"ha":491,"o":"m 58 296 q 58 383 64 480 q 70 577 70 584 q 71 640 75 659 q 79 678 88 678 q 119 678 151 665 q 184 651 184 639 q 184 638 183 633 q 180 613 180 593 q 180 588 181 574 q 181 560 181 551 q 181 530 176 437 q 170 343 170 269 q 170 172 186 124 q 202 76 234 76 q 280 76 296 133 q 313 190 313 422 q 313 441 311 495 q 308 549 308 584 l 308 632 q 308 670 312 681 q 317 692 330 692 q 361 692 394 682 q 426 672 426 660 q 426 657 424 648 q 423 639 423 634 q 423 629 423 620 q 424 611 424 606 q 424 598 423 577 q 422 557 422 544 q 422 533 424 439 q 427 345 427 261 q 427 172 417 116 q 406 61 385 34 q 362 5 330 -12 q 299 -29 268 -29 q 252 -29 227 -20 q 201 -10 146 17 q 129 25 113 44 q 97 62 85 87 q 70 118 64 161 q 58 203 58 296 z"},"o":{"x_min":0,"x_max":350,"ha":350,"o":"m 131 162 q 131 121 139 91 q 146 62 156 62 q 175 62 195 117 q 215 173 215 236 q 215 284 206 321 q 196 357 186 357 q 171 357 151 291 q 131 225 131 162 z m 29 177 q 29 230 43 294 q 57 357 78 403 q 89 427 102 439 q 115 450 132 450 q 139 450 177 441 q 215 431 234 423 q 275 404 297 350 q 319 296 319 213 q 319 118 279 47 q 239 -23 194 -23 q 185 -23 174 -20 q 164 -17 152 -11 q 103 12 78 26 q 52 45 41 81 q 29 117 29 177 z"},"N":{"x_min":0,"x_max":516,"ha":516,"o":"m 70 15 q 70 21 66 72 q 63 123 63 168 q 63 179 64 209 q 65 239 65 258 l 65 325 q 65 343 66 389 q 68 435 68 462 q 68 572 74 658 q 74 664 74 664 q 75 668 79 670 q 83 673 89 673 q 102 673 130 665 q 159 657 169 651 q 183 643 215 551 q 219 538 222 530 q 257 431 293 346 q 329 261 332 261 q 334 261 335 264 q 336 266 336 272 q 336 273 335 280 q 333 316 333 353 q 333 548 339 690 q 339 695 339 696 q 340 708 344 712 q 348 715 363 715 q 408 715 425 707 q 442 700 442 679 q 442 677 444 614 q 446 551 446 490 q 446 485 445 434 q 445 383 445 337 q 445 300 447 234 q 448 168 448 139 q 448 51 443 22 q 438 -7 424 -7 q 418 -7 405 -3 q 391 0 382 0 l 374 0 q 347 0 330 33 q 327 39 326 41 q 251 190 227 241 q 202 292 202 297 q 202 298 194 315 q 187 333 179 350 q 177 354 174 358 q 170 362 168 362 q 167 362 167 360 q 166 358 166 350 q 166 324 170 269 q 175 214 175 185 q 175 174 174 151 q 173 128 173 115 q 173 112 174 86 q 175 60 175 38 l 175 30 q 175 -12 168 -23 q 161 -34 143 -34 q 128 -34 115 -25 q 101 -15 95 -14 q 91 -13 84 -12 q 69 -10 69 -4 q 69 0 69 7 q 70 14 70 15 z"},"+":{"x_min":0,"x_max":833,"ha":833,"o":"m 375 596 l 458 596 l 458 339 l 709 339 l 709 258 l 458 258 l 458 0 l 375 0 l 375 258 l 124 258 l 124 339 l 375 339 z"},"G":{"x_min":0,"x_max":491,"ha":491,"o":"m 36 291 q 36 387 66 478 q 97 568 149 632 q 174 662 203 681 q 231 701 248 701 q 268 701 288 693 q 307 684 357 652 q 396 627 411 597 q 425 568 425 509 q 425 452 412 421 q 400 389 378 389 q 374 389 366 392 q 357 394 352 394 q 350 394 344 393 q 339 392 337 392 q 317 392 306 421 q 296 451 296 508 q 296 519 301 545 q 305 570 305 585 q 305 593 300 600 q 294 607 289 607 q 282 607 260 585 q 237 563 221 536 q 189 479 174 416 q 159 352 159 270 q 159 172 178 112 q 197 52 225 52 q 240 52 257 64 q 274 77 289 99 q 303 120 316 154 q 328 188 328 198 q 328 203 324 206 q 320 208 311 208 q 309 208 299 208 q 288 207 279 207 q 257 207 243 211 q 228 214 219 222 q 206 233 196 251 q 185 270 185 278 q 185 293 230 298 q 232 298 234 298 q 273 302 316 312 q 359 322 371 322 q 386 322 399 324 q 401 324 402 324 q 412 324 434 303 q 456 282 456 272 q 456 228 440 174 q 425 119 398 72 q 372 26 336 0 q 300 -27 266 -27 q 244 -27 209 -15 q 207 -14 205 -13 q 197 -10 174 -4 q 151 1 141 9 q 94 46 65 122 q 36 199 36 291 z"},"q":{"x_min":0,"x_max":361,"ha":361,"o":"m 192 359 q 175 359 152 279 q 128 199 128 113 q 128 92 134 74 q 140 57 144 57 q 162 57 183 97 q 205 136 205 196 q 205 200 205 213 q 204 225 204 233 q 204 244 205 263 q 206 283 206 292 q 206 296 206 311 q 205 325 205 336 l 205 342 q 205 353 202 356 q 199 359 192 359 z m 264 -249 q 237 -249 220 -235 q 202 -221 202 -199 q 202 -197 204 -189 q 205 -182 205 -177 q 205 -169 204 -154 q 202 -138 202 -130 q 202 -113 203 -95 q 203 -77 203 -77 q 203 -48 200 -19 q 199 -13 199 -11 q 199 -8 200 -3 q 201 1 201 2 q 201 3 201 4 q 201 4 200 4 q 200 4 186 -5 q 172 -14 153 -14 q 143 -14 111 -1 q 79 13 73 18 q 49 40 39 70 q 29 101 29 155 q 29 260 72 352 q 114 444 148 444 q 171 444 199 435 q 227 427 227 427 q 228 427 237 431 q 247 436 254 436 q 266 436 291 422 q 316 409 316 401 q 316 393 308 256 q 301 119 301 -10 q 301 -35 303 -66 q 306 -97 306 -103 q 306 -105 305 -115 q 303 -125 303 -133 q 303 -140 305 -149 q 306 -159 306 -162 q 306 -165 306 -173 q 305 -182 305 -187 q 305 -193 306 -205 q 307 -217 307 -224 q 307 -238 301 -244 q 294 -249 270 -249 z"},"d":{"x_min":0,"x_max":359,"ha":359,"o":"m 197 351 q 184 351 172 329 q 161 307 147 258 q 133 208 126 160 q 118 112 118 83 q 118 76 121 72 q 124 68 129 68 q 138 68 156 93 q 174 117 188 151 q 201 185 207 221 q 212 257 212 326 q 212 338 208 344 q 204 351 197 351 z m 219 21 l 219 30 q 219 36 217 37 q 215 39 211 39 q 209 39 186 12 q 163 -15 136 -15 q 124 -15 102 -2 q 80 10 57 31 q 40 47 32 74 q 25 102 25 154 q 25 208 45 277 q 65 347 89 384 q 101 403 120 418 q 139 433 145 433 q 145 433 166 427 q 187 421 207 421 q 211 421 214 424 q 216 427 216 433 q 216 434 215 437 q 215 439 215 441 q 215 444 217 450 q 219 456 219 459 q 219 461 218 470 q 216 479 216 486 q 216 498 219 528 q 221 559 221 577 q 221 601 219 631 q 216 661 216 668 q 216 685 221 694 q 226 703 236 703 q 240 703 260 698 q 281 692 303 684 q 311 681 314 674 q 317 666 317 638 q 317 635 316 580 q 316 525 316 473 q 316 429 314 315 q 312 201 312 131 q 312 107 313 74 q 314 42 314 34 q 314 28 313 17 q 313 6 313 1 q 313 -2 315 -9 q 318 -16 318 -20 q 318 -30 311 -36 q 304 -43 293 -43 q 268 -43 243 -24 q 219 -6 219 21 z"},"1":{"x_min":0,"x_max":280,"ha":280,"o":"m 93 54 q 93 139 98 209 q 98 218 98 219 q 98 224 96 233 q 94 242 94 246 q 94 247 94 250 q 97 279 97 320 q 97 321 98 342 q 99 363 99 383 q 99 387 99 402 q 98 417 98 429 q 98 432 99 438 q 100 444 100 447 q 100 450 98 452 q 97 455 95 455 q 92 455 77 445 q 62 434 51 434 q 47 434 37 444 q 27 454 27 456 q 27 459 39 472 q 51 486 57 499 q 58 501 61 507 q 69 528 81 540 q 91 551 103 574 q 115 597 123 604 q 133 613 147 624 q 147 624 161 618 q 174 612 188 607 q 192 605 200 605 q 219 605 219 571 q 219 559 217 503 q 214 447 214 405 l 214 328 q 214 300 212 209 q 211 119 211 56 q 211 30 215 4 q 216 0 216 -1 q 216 -12 208 -19 q 199 -27 187 -27 q 171 -27 147 -11 q 123 4 113 7 q 100 10 96 20 q 93 30 93 54 z"},"5":{"x_min":0,"x_max":407,"ha":407,"o":"m 41 52 q 41 66 51 77 q 61 89 72 89 q 75 89 83 86 q 92 84 97 84 q 105 84 135 98 q 164 112 189 131 q 217 153 234 177 q 250 200 250 219 q 250 246 206 267 q 161 287 98 287 q 93 287 86 281 q 79 275 75 275 q 67 275 63 284 q 60 294 59 295 q 55 299 47 306 q 31 321 31 336 q 31 354 48 388 q 58 408 63 420 q 79 456 98 496 q 117 536 117 540 q 117 548 104 558 q 92 567 92 574 q 92 579 100 585 q 108 592 117 595 q 124 597 142 599 q 152 599 158 600 q 171 602 196 605 q 240 611 257 611 q 262 611 273 610 q 285 610 291 610 q 295 610 303 610 q 312 611 316 611 q 329 611 343 602 q 356 593 359 584 q 364 569 372 553 q 381 537 381 530 q 381 506 319 503 q 254 500 208 492 q 199 491 195 487 q 190 483 186 474 q 182 466 177 449 q 172 433 170 427 q 165 413 157 401 q 150 389 150 388 q 150 384 155 381 q 160 379 177 376 q 222 368 279 336 q 286 332 290 330 q 317 315 345 281 q 373 248 373 230 q 373 168 352 130 q 332 92 281 52 q 240 20 185 -3 q 131 -26 112 -26 q 105 -26 94 -11 q 83 3 79 7 q 73 13 62 21 q 41 38 41 52 z"}}}
